<?xml version="1.0" standalone="no"?>
<!DOCTYPE svg PUBLIC "-//W3C//DTD SVG 20010904//EN"
 "http://www.w3.org/TR/2001/REC-SVG-20010904/DTD/svg10.dtd">
<svg version="1.0" xmlns="http://www.w3.org/2000/svg"
 width="433.000000pt" height="577.000000pt" viewBox="0 0 433.000000 577.000000"
 preserveAspectRatio="xMidYMid meet">

<g transform="translate(0.000000,577.000000) scale(0.100000,-0.100000)"
fill="#000000" stroke="none">
<path d="M2276 5121 c-31 -17 -46 -41 -27 -41 6 0 11 -7 11 -15 0 -21 -9 -19
-31 6 -11 12 -25 19 -34 15 -8 -3 -15 -1 -15 4 0 6 -9 10 -19 10 -11 0 -22 6
-24 13 -3 6 -6 1 -6 -12 -1 -19 -4 -21 -16 -11 -8 6 -19 9 -26 5 -8 -6 -7 -10
2 -16 11 -7 10 -9 -4 -9 -10 0 -20 -7 -23 -15 -4 -8 -11 -12 -18 -8 -31 20
-68 -12 -98 -84 -10 -24 -12 -25 -16 -9 -3 16 -8 11 -19 -20 -9 -21 -15 -50
-15 -64 0 -37 -15 -60 -36 -53 -13 5 -12 0 6 -19 l23 -25 -25 0 c-26 0 -44 27
-31 46 3 6 -3 15 -15 21 -18 10 -19 8 -13 -22 3 -18 10 -41 14 -50 5 -9 9 -21
9 -27 0 -12 -115 -73 -122 -65 -3 2 -22 -16 -42 -41 -21 -25 -43 -45 -50 -45
-6 0 -22 -24 -36 -53 -27 -59 -31 -143 -11 -257 53 -306 54 -318 22 -304 -42
17 -60 15 -88 -10 -27 -25 -28 -30 -26 -114 4 -179 68 -329 150 -351 20 -6 39
-8 43 -6 21 13 40 -28 59 -128 26 -134 26 -148 1 -180 -25 -31 -37 -114 -23
-154 7 -19 6 -39 -2 -63 l-13 -35 -11 25 c-9 20 -10 7 -7 -65 3 -49 1 -99 -4
-110 -8 -18 -9 -18 -9 5 -1 14 -5 32 -11 40 -8 13 -9 13 -14 0 -13 -41 -14
-65 -5 -76 6 -7 9 -21 6 -31 -3 -13 -5 -11 -6 7 -1 20 -3 22 -11 10 -7 -12
-10 -8 -10 15 -1 60 -30 67 -45 10 -4 -16 -10 -24 -12 -17 -4 10 -8 10 -19 1
-9 -8 -12 -23 -9 -48 3 -20 2 -56 -3 -81 l-8 -45 -8 55 c-7 50 -9 53 -18 30
-9 -24 -6 -109 9 -194 4 -27 3 -37 -5 -32 -6 3 -12 -2 -14 -11 -2 -10 -8 11
-12 46 -8 69 -25 69 -26 1 0 -26 -3 -31 -10 -20 -8 12 -10 12 -11 -5 0 -20 0
-20 -8 0 -7 17 -9 15 -13 -14 -4 -25 0 -39 14 -53 10 -10 18 -28 18 -41 0 -18
5 -23 23 -22 18 1 23 9 28 41 5 31 6 33 8 11 1 -23 5 -28 24 -25 20 3 22 8 21
63 l-1 60 13 -40 c10 -33 13 -36 14 -15 2 18 4 20 7 7 3 -10 -1 -25 -9 -34
-11 -15 -10 -16 9 -11 27 7 35 -2 22 -22 -6 -11 -9 -11 -9 -2 0 8 -19 3 -57
-16 -32 -16 -80 -37 -106 -47 -26 -10 -50 -22 -53 -26 -3 -5 7 -84 21 -175 14
-92 24 -173 21 -180 -3 -8 -1 -14 4 -14 6 0 10 -10 10 -22 0 -21 0 -21 -14 -3
-13 18 -14 17 -9 -10 3 -17 3 -28 0 -25 -8 7 -76 391 -77 433 0 4 -7 7 -15 7
-8 0 -15 -2 -15 -4 0 -3 16 -103 35 -223 20 -120 34 -226 31 -235 -2 -10 0
-18 5 -18 5 0 9 -8 9 -17 0 -15 -2 -16 -10 -3 -8 12 -10 12 -9 -5 0 -11 4 -29
9 -40 l9 -20 1 20 c2 17 3 16 10 -5 4 -14 8 -34 8 -45 l1 -20 -9 20 c-7 17 -9
16 -10 -10 -1 -16 -3 -25 -6 -20 -10 26 -104 553 -104 587 0 17 -7 31 -15 35
-24 9 -27 0 -16 -48 5 -24 26 -145 45 -269 25 -160 33 -235 27 -260 l-8 -35
-7 37 c-5 20 -5 41 -2 46 3 6 2 12 -3 14 -7 3 -38 162 -83 433 -6 39 -14 74
-18 78 -8 10 -40 -2 -40 -15 0 -5 4 -7 9 -4 10 6 23 -55 51 -244 11 -74 27
-171 35 -215 16 -89 19 -138 5 -95 l-8 25 -1 -24 c-1 -13 -3 -22 -6 -19 -5 4
-39 196 -80 443 -23 142 -24 145 -41 145 -12 0 -14 -7 -9 -30 11 -50 33 -195
30 -198 -1 -1 -9 0 -18 4 -11 4 -20 35 -32 102 -21 121 -21 122 -40 122 -20 0
-32 -30 -16 -39 7 -5 17 -38 24 -75 10 -57 9 -69 -3 -76 -12 -8 -18 7 -33 82
-9 50 -19 93 -21 96 -12 11 -46 -12 -46 -31 0 -16 3 -18 9 -9 10 17 17 3 26
-60 6 -36 4 -45 -9 -45 -14 0 -36 69 -36 113 0 24 -27 27 -57 5 -31 -22 -60
-28 -85 -17 -11 5 -25 1 -39 -13 -13 -12 -18 -21 -12 -21 14 0 37 -56 28 -69
-4 -7 -16 -1 -31 14 -32 32 -53 32 -80 0 -12 -14 -26 -25 -30 -24 -29 5 -36
-2 -29 -28 l6 -27 -20 25 c-20 22 -22 23 -35 7 -14 -19 -52 -26 -41 -8 16 26
-19 5 -55 -33 -57 -60 -205 -365 -187 -384 2 -1 14 23 26 55 34 83 131 253
142 246 9 -5 -4 -39 -18 -46 -19 -8 -107 -200 -123 -267 -11 -44 2 -28 23 29
10 25 27 62 40 82 12 20 40 67 62 103 22 37 43 61 48 56 11 -11 -18 -68 -78
-158 -46 -67 -55 -93 -33 -93 6 0 8 3 5 7 -9 8 24 32 46 33 16 0 16 -2 2 -29
-8 -17 -12 -37 -9 -45 6 -16 59 57 103 142 11 20 27 46 35 57 l16 20 -7 -20
c-6 -18 -5 -19 12 -5 14 11 11 3 -10 -35 -92 -166 -115 -214 -109 -229 5 -13
16 0 44 51 49 91 129 224 147 245 8 9 21 14 28 12 17 -7 28 -35 13 -31 -10 2
-108 -146 -108 -163 0 -4 7 -7 15 -7 18 0 79 103 70 118 -4 5 -1 8 7 7 7 -2
12 5 12 14 -1 10 2 16 6 13 5 -3 11 -1 15 5 8 14 25 3 25 -17 0 -8 -8 -27 -19
-41 -22 -32 -41 -65 -116 -206 -40 -74 -54 -110 -48 -121 7 -11 15 -2 36 41
15 30 24 60 21 66 -4 6 -3 8 3 5 6 -4 33 32 62 82 53 91 59 107 39 95 -7 -4
-8 -3 -4 5 4 6 12 9 17 6 5 -4 12 2 16 11 6 15 8 13 14 -10 6 -19 3 -36 -7
-52 -9 -13 -12 -29 -8 -35 4 -7 3 -9 -3 -6 -13 8 -46 -50 -37 -65 4 -7 3 -8
-4 -4 -15 9 -114 -187 -106 -209 5 -11 28 24 71 107 36 68 76 140 89 160 29
45 29 48 4 217 -11 74 -17 137 -15 139 3 3 8 -10 12 -28 5 -26 8 -30 13 -16 9
27 37 -132 55 -311 8 -84 18 -159 21 -167 3 -8 -9 -34 -26 -57 -17 -25 -29
-51 -27 -61 3 -10 1 -16 -3 -13 -10 6 -25 -34 -16 -42 3 -4 6 2 6 13 0 14 3
15 8 6 6 -9 12 -5 21 15 10 21 14 24 21 13 7 -12 11 -9 19 10 5 14 10 20 10
13 1 -6 -4 -24 -9 -38 -7 -18 -7 -32 0 -43 9 -14 10 -12 5 8 l-6 25 14 -24
c14 -23 15 -23 20 -5 4 17 5 17 6 -3 0 -12 -3 -32 -7 -45 -5 -14 -3 -37 4 -58
10 -30 11 -22 9 65 -1 55 -6 127 -9 160 -5 46 -4 56 4 42 6 -9 15 -15 19 -13
4 3 14 -34 21 -82 11 -69 15 -82 21 -62 5 16 7 6 4 -30 -4 -49 -3 -51 6 -22 7
23 7 57 -1 108 -12 90 -12 107 1 76 5 -13 13 -21 18 -18 9 6 30 -71 32 -117 1
-21 2 -20 9 3 6 17 7 4 5 -40 -4 -60 -3 -61 5 -20 5 28 5 73 -1 118 -6 41 -8
76 -5 80 3 3 6 0 6 -6 0 -6 6 -9 14 -6 10 4 16 -8 22 -48 6 -46 8 -49 15 -28
6 16 7 6 4 -30 -4 -48 -3 -51 5 -20 5 19 7 62 5 95 -3 33 -2 54 1 48 3 -7 12
-13 19 -13 9 0 17 -18 21 -48 7 -41 9 -44 15 -22 4 14 7 39 8 56 1 42 29 54
37 16 9 -43 12 -48 14 -27 2 17 3 17 11 -5 6 -17 7 -9 3 27 -5 48 -4 51 15 46
14 -4 23 -18 29 -47 l9 -41 8 51 c5 40 11 51 23 50 9 -2 20 -14 23 -27 6 -21
7 -21 9 -4 2 17 3 16 10 -5 7 -22 8 -21 9 13 1 47 27 50 40 4 5 -17 10 -25 11
-17 1 8 6 4 11 -10 6 -19 8 -13 4 23 -4 42 -2 47 15 47 15 0 21 -9 27 -42 5
-34 8 -38 14 -23 4 11 8 32 8 47 1 21 5 25 20 21 22 -6 25 -18 43 -188 11
-114 12 -118 21 -75 6 30 5 82 -3 154 -10 90 -10 110 1 117 19 12 26 -11 41
-138 9 -77 14 -101 20 -83 4 14 5 -9 3 -50 l-4 -75 10 54 c8 41 7 84 -5 186
-19 154 -19 158 -7 151 5 -4 11 0 14 6 6 18 22 -81 43 -266 12 -99 21 -149 26
-135 3 13 5 -10 2 -51 -2 -57 -1 -68 6 -45 7 23 8 12 6 -45 -3 -60 -2 -68 5
-40 11 42 7 105 -28 389 -21 179 -23 215 -12 222 20 12 25 -9 48 -206 11 -93
26 -217 32 -275 9 -75 15 -98 20 -80 4 14 6 -9 3 -50 -3 -72 -3 -73 6 -23 8
41 2 117 -29 380 -24 202 -37 342 -32 363 6 32 8 28 25 -52 10 -48 37 -237 60
-420 35 -273 44 -324 49 -284 4 27 7 58 6 70 -1 19 -2 18 -10 -4 -6 -18 -7
-12 -3 22 7 65 -60 569 -101 763 -38 174 -77 396 -72 401 2 2 11 -2 21 -9 12
-9 25 -63 51 -212 19 -114 30 -201 24 -203 -14 -5 -11 -22 5 -22 20 0 75 -311
112 -640 6 -52 9 -60 15 -40 5 15 6 2 4 -35 -4 -54 -3 -57 7 -28 9 26 6 69
-11 205 -40 310 -61 440 -96 603 -19 88 -43 216 -55 285 -11 69 -29 154 -40
190 -11 36 -20 69 -20 73 0 18 40 -16 46 -38 3 -14 10 -23 14 -20 5 3 6 -5 2
-17 -4 -16 -2 -19 8 -13 10 6 12 4 7 -9 -7 -17 8 -104 93 -556 21 -113 51
-294 66 -404 18 -129 31 -192 36 -180 5 11 6 -4 3 -36 -4 -46 -3 -50 5 -25 6
17 8 53 5 80 -17 143 -69 485 -91 590 -13 66 -36 183 -49 260 -38 210 -46 246
-53 241 -4 -2 -8 16 -9 40 -1 40 0 43 17 34 10 -5 21 -24 25 -41 6 -24 9 -28
17 -18 6 9 7 3 3 -21 -5 -26 -4 -31 4 -20 6 8 11 25 11 38 0 19 2 21 19 10 11
-6 22 -27 26 -46 5 -30 8 -32 18 -17 24 31 66 -12 67 -68 1 -20 2 -19 13 6
l12 28 23 -21 c12 -11 22 -28 22 -38 0 -15 2 -15 11 -2 7 11 8 4 4 -25 -5 -40
-5 -40 5 -7 9 28 13 31 31 22 11 -6 22 -25 26 -41 4 -23 8 -27 15 -17 6 8 8
-1 5 -27 l-5 -40 11 38 c11 40 26 43 43 9 6 -12 13 -20 16 -17 2 3 3 -10 1
-28 l-3 -32 13 33 12 33 23 -28 c12 -15 22 -36 22 -46 0 -10 4 -15 10 -12 14
9 -1 -57 -17 -73 -11 -11 -14 -8 -20 18 -4 23 -8 28 -15 18 -6 -8 -8 5 -4 37
4 42 4 45 -5 20 -11 -33 -7 -69 18 -187 19 -92 38 -94 29 -3 -5 50 -3 64 8 68
22 9 32 -74 17 -144 -15 -75 -14 -171 3 -204 8 -16 14 -59 15 -103 0 -43 5
-99 11 -127 29 -147 49 -430 54 -795 1 -80 4 -151 7 -159 2 -7 -2 -16 -8 -18
-17 -6 -33 39 -33 93 0 24 -4 44 -9 44 -5 0 -12 10 -14 23 -2 12 -5 -12 -5
-53 -1 -48 4 -84 13 -100 8 -14 15 -54 16 -90 1 -95 12 -163 26 -168 17 -5 17
30 -2 117 -14 66 -12 101 4 101 14 0 31 -51 31 -91 0 -68 20 -129 41 -129 11
0 19 5 19 11 0 5 -4 8 -9 5 -4 -3 -6 6 -3 21 3 17 1 24 -6 19 -18 -11 -31 89
-36 284 -3 102 -7 192 -10 200 -2 8 -9 123 -16 255 -6 132 -18 307 -26 388 -8
82 -15 226 -16 320 -1 158 1 181 26 277 15 58 35 111 44 118 9 6 13 12 9 12
-8 0 58 70 105 109 l36 32 16 -69 c8 -37 20 -113 27 -168 6 -54 22 -131 35
-171 13 -39 24 -80 24 -90 0 -10 5 -25 11 -33 19 -27 1 121 -22 180 -12 32
-27 107 -35 178 -14 130 -21 163 -36 173 -4 3 0 13 11 23 18 17 19 16 26 -26
4 -24 11 -50 16 -59 5 -9 15 -70 23 -135 18 -142 32 -218 45 -242 12 -23 48
-170 48 -197 1 -59 25 -258 34 -282 19 -48 22 -7 6 90 -9 51 -21 146 -27 212
-7 66 -18 143 -27 170 -39 132 -51 188 -62 285 -14 123 -31 200 -44 200 -13 0
9 25 52 59 l36 29 1 -52 c0 -29 8 -74 17 -102 9 -27 27 -119 41 -204 14 -85
46 -234 71 -330 25 -96 45 -191 46 -210 0 -19 5 -44 10 -55 6 -13 7 5 3 55 -9
128 -34 264 -70 387 -27 93 -71 350 -61 360 13 13 19 -7 48 -159 31 -158 40
-199 84 -378 27 -111 48 -208 64 -300 9 -50 9 -48 5 29 -7 108 -46 324 -83
466 -36 135 -59 243 -65 313 -10 110 17 42 50 -127 13 -69 41 -193 63 -275 44
-166 73 -311 92 -456 7 -52 15 -88 17 -81 14 41 -55 459 -114 692 -25 97 -51
209 -58 249 -13 64 -12 71 1 58 8 -9 25 -64 38 -124 12 -60 43 -185 69 -279
25 -93 53 -213 61 -265 9 -52 18 -97 21 -101 2 -4 11 -61 20 -126 8 -65 17
-120 20 -122 17 -17 -17 260 -56 457 -34 171 -43 210 -89 381 -17 62 -31 128
-31 145 1 47 14 16 39 -89 21 -88 34 -139 85 -320 14 -49 35 -138 47 -197 12
-59 26 -108 31 -108 4 0 6 10 4 23 -3 12 -8 49 -11 82 -4 33 -25 134 -46 225
-22 91 -42 178 -44 193 -2 16 -8 34 -13 40 -13 16 -46 166 -39 173 3 3 13 -20
22 -52 16 -58 30 -108 78 -274 14 -47 39 -145 57 -219 25 -102 35 -129 41
-113 5 14 -2 56 -20 124 -16 57 -43 168 -61 247 -17 78 -34 150 -36 160 -3 9
2 3 11 -13 18 -31 59 -175 100 -356 15 -63 31 -120 36 -126 5 -6 13 -47 19
-90 5 -43 14 -124 21 -179 13 -103 27 -169 28 -130 0 11 -4 49 -9 85 -6 36
-13 112 -16 170 -4 77 -14 127 -35 190 -15 47 -40 144 -54 215 -28 139 -66
281 -92 346 -8 22 -13 42 -10 45 3 3 10 -12 17 -33 7 -21 18 -51 25 -68 37
-87 89 -283 115 -432 6 -35 24 -94 41 -133 20 -47 32 -99 38 -157 l9 -88 -2
110 c-1 100 -5 116 -33 180 -22 47 -41 117 -58 215 -15 80 -36 172 -47 205
-33 97 -58 189 -49 179 10 -12 84 -229 106 -314 9 -36 25 -113 36 -171 12 -71
30 -132 54 -182 19 -42 35 -81 35 -87 0 -6 5 -8 10 -5 6 3 10 16 10 28 l1 22
18 -22 c23 -27 31 -21 24 18 -4 29 9 39 24 17 5 -9 10 -1 13 22 3 19 11 34 17
33 6 -1 14 9 17 23 5 17 12 24 21 20 8 -3 19 3 24 12 9 15 11 14 20 -8 l10
-25 0 28 c1 34 19 35 27 1 l7 -27 12 23 c12 22 13 22 23 4 10 -17 11 -17 12
-1 0 19 20 24 20 5 1 -7 8 3 16 22 14 32 14 45 -1 134 -9 54 -14 101 -11 103
6 6 9 -6 32 -122 9 -44 18 -82 20 -84 5 -6 -4 108 -12 143 -5 21 -4 27 5 22 6
-4 11 -16 11 -27 0 -10 5 -19 10 -19 6 0 10 14 10 31 0 23 4 30 15 26 11 -5
13 0 9 23 -4 20 -1 34 10 45 9 9 16 23 16 31 0 8 5 14 11 14 7 0 9 8 4 23 -3
12 -6 29 -6 37 1 51 -56 281 -75 300 -12 12 -14 12 -14 -5 0 -11 9 -35 20 -52
19 -32 19 -33 0 -21 -25 16 -33 7 -21 -25 5 -14 6 -38 2 -54 l-8 -28 -12 22
c-6 13 -8 23 -2 23 15 0 0 114 -15 123 -8 4 -14 13 -14 19 0 6 7 5 17 -3 14
-12 14 -10 -1 14 -19 29 -39 37 -30 12 7 -17 -11 -21 -21 -5 -4 6 -10 8 -14 6
-4 -3 -21 8 -36 24 -16 17 -34 30 -42 30 -7 0 -17 9 -23 21 -11 20 -12 20 -25
2 -18 -24 -29 -11 -29 38 -1 35 -7 46 -46 79 l-44 38 -17 -47 c-11 -33 -21
-45 -32 -43 -11 2 -17 -4 -17 -18 0 -11 -7 -20 -15 -20 -11 0 -15 -11 -15 -36
l0 -37 -28 39 c-29 39 -32 74 -7 74 8 0 17 10 21 23 4 12 11 25 16 28 14 9 0
49 -17 49 -8 0 -21 9 -29 21 -18 27 -38 16 -30 -17 5 -21 3 -25 -12 -22 -16 2
-19 -3 -16 -30 3 -46 -14 -32 -22 17 -3 22 -11 43 -18 47 -8 5 -10 -12 -5 -67
5 -72 5 -73 -8 -34 -7 22 -14 50 -14 63 -1 12 -6 22 -11 22 -6 0 -8 -10 -6
-22 9 -41 17 -183 11 -177 -3 4 -14 49 -25 100 l-18 94 -1 -57 c-1 -31 6 -92
14 -135 8 -43 15 -80 14 -83 -3 -19 -41 116 -46 163 -9 90 -19 50 -12 -50 3
-48 5 -90 3 -91 -7 -9 -34 106 -35 147 l-1 46 -9 -38 c-5 -21 -5 -64 0 -100 5
-34 7 -64 5 -66 -10 -10 -27 63 -33 139 l-6 85 -8 -66 c-8 -70 -4 -106 20
-182 16 -52 12 -76 -4 -30 -12 31 -38 121 -50 168 -7 29 -8 28 -11 -14 -2 -23
2 -57 7 -74 12 -34 15 -94 4 -83 -10 9 -42 143 -44 181 l-1 30 -8 -34 c-5 -20
-3 -63 5 -110 8 -42 10 -80 6 -84 -16 -16 -35 82 -37 188 -1 138 -2 147 -13
141 -5 -3 -8 -81 -6 -173 2 -148 1 -164 -11 -138 -7 17 -14 44 -15 60 0 17 -5
41 -10 55 -5 17 -7 -6 -6 -68 1 -50 -1 -92 -5 -92 -10 0 -28 71 -30 115 -1 22
-4 31 -9 23 -4 -7 -11 -9 -15 -5 -4 3 -2 12 3 19 6 7 13 32 16 56 3 24 12 51
21 61 9 10 16 25 16 34 0 9 5 19 10 22 6 3 10 14 10 25 0 10 7 21 16 24 24 9
34 7 34 -8 0 -8 8 -33 19 -56 15 -33 19 -38 24 -21 2 11 -4 34 -15 52 -11 18
-22 44 -25 58 -2 14 -18 53 -35 86 -69 138 -75 163 -48 198 20 25 27 57 12 57
-4 0 -13 18 -19 40 -5 22 -7 40 -2 40 4 0 9 -6 12 -12 2 -7 8 -10 12 -6 4 4 3
13 -1 20 -18 28 -13 56 17 94 30 38 48 72 45 86 0 3 9 17 21 30 11 13 26 42
32 65 6 23 15 43 19 45 14 6 52 98 67 163 15 66 20 117 8 85 -3 -8 -14 -25
-23 -37 -15 -19 -19 -21 -24 -7 -3 9 -6 24 -6 34 0 10 -4 20 -9 22 -5 2 -13
15 -16 31 -6 23 -5 26 11 20 12 -4 15 -3 10 5 -11 19 5 14 20 -5 11 -15 13
-15 14 -3 0 8 11 27 25 42 24 26 25 31 20 119 -3 50 -8 95 -10 99 -3 4 -5 45
-6 90 -1 60 3 85 12 91 9 5 9 9 3 9 -7 0 -11 15 -9 37 1 22 -4 43 -12 51 -8 8
-12 21 -9 29 4 8 1 11 -5 8 -6 -4 -17 1 -25 11 -9 11 -13 13 -9 4 4 -8 -1 -6
-9 4 -11 13 -13 28 -8 45 11 42 3 187 -13 218 -19 35 -19 47 -1 62 12 10 19 2
39 -42 14 -29 32 -87 40 -128 12 -58 16 -67 18 -39 7 101 -2 229 -19 285 -12
38 -16 69 -11 82 7 21 4 27 -41 81 -6 6 -8 12 -4 12 3 0 1 6 -5 14 -6 8 -11
18 -9 22 1 5 -9 25 -22 44 -18 25 -34 36 -54 37 -16 1 -33 7 -36 14 -4 6 -16
9 -26 7 -10 -1 -29 8 -42 21 -19 19 -26 21 -32 10 -5 -7 -12 -11 -15 -7 -4 3
8 17 25 30 31 23 31 23 8 29 -13 4 -41 4 -63 1 -36 -5 -39 -4 -26 11 13 16 2
25 -13 10 -3 -4 -16 -8 -28 -10 -21 -3 -21 -3 -3 17 20 22 30 27 19 8 -4 -7
-3 -8 4 -4 18 11 15 56 -4 56 -8 0 -12 5 -9 10 4 6 -6 10 -24 10 -23 0 -34 -7
-45 -27 -10 -19 -15 -22 -16 -11 0 9 -3 24 -7 33 -5 14 -2 16 17 10 19 -6 22
-4 17 10 -4 9 -7 19 -7 21 0 2 -7 4 -15 4 -8 0 -15 -5 -15 -11 0 -5 -13 -15
-29 -20 -19 -7 -32 -20 -36 -37 -4 -15 -10 -21 -12 -15 -3 10 -10 10 -25 2
-15 -8 -19 -8 -14 0 4 6 2 11 -4 11 -6 0 -8 5 -5 10 3 6 3 15 -1 21 -4 8 -9 7
-14 -2 -7 -10 -12 -10 -23 -1 -10 9 -18 8 -33 -3 -32 -24 -48 -19 -27 9 10 13
21 22 25 20 4 -2 10 6 14 18 12 41 25 50 44 33 24 -22 36 -2 17 26 -11 15 -16
17 -20 7 -4 -10 -7 -11 -18 0 -16 15 -17 15 -53 -7z m34 -121 c0 -5 -4 -10
-10 -10 -5 0 -10 5 -10 10 0 6 5 10 10 10 6 0 10 -4 10 -10z m-96 -25 c-4 -9
-17 -15 -33 -14 -20 1 -22 2 -6 6 11 3 24 9 30 14 13 13 15 11 9 -6z m299
-892 c9 -3 17 0 17 6 0 6 9 11 20 11 22 0 27 -15 8 -23 -8 -4 -4 -8 10 -12 25
-8 27 -18 11 -64 -10 -29 -29 -43 -29 -21 0 6 -9 10 -21 10 -11 0 -29 5 -40
10 -13 7 -19 7 -19 0 0 -5 -6 -10 -14 -10 -7 0 -20 -10 -29 -22 -14 -21 -16
-21 -22 -6 -4 11 -1 24 9 33 9 9 16 26 16 39 0 30 31 67 50 60 8 -4 23 -9 33
-11z m184 -527 c-2 -6 -22 -14 -45 -17 -23 -3 -50 -13 -60 -22 -10 -9 -26 -17
-35 -17 -9 0 -19 -4 -22 -10 -10 -16 -35 -12 -35 6 0 10 6 14 15 10 8 -3 15
-1 15 5 0 6 6 9 14 6 8 -3 13 1 12 10 -1 11 10 18 34 20 19 3 40 8 47 11 21
12 64 11 60 -2z m-644 -53 c-3 -7 -8 -13 -12 -13 -4 0 -8 6 -8 13 0 8 6 14 13
14 7 0 10 -6 7 -14z m201 -219 c3 -8 2 -12 -4 -9 -6 3 -10 10 -10 16 0 14 7
11 14 -7z m56 -36 c0 -44 -24 -29 -28 17 -3 34 -2 37 12 26 9 -8 16 -27 16
-43z m346 -25 c-5 -12 -9 -13 -21 -3 -12 10 -16 9 -21 -3 -6 -17 -74 -29 -157
-29 -37 0 -54 4 -64 18 -7 10 -13 13 -13 8 0 -13 -31 -14 -47 -2 -11 9 -10 38
2 58 11 17 37 11 42 -10 3 -11 8 -20 12 -20 3 0 12 9 19 20 16 27 38 25 58 -5
l16 -24 23 27 c19 23 25 24 39 13 9 -7 16 -21 17 -30 0 -11 3 -10 11 7 13 26
33 29 47 5 10 -16 10 -16 11 3 0 11 6 26 13 33 10 10 13 6 15 -19 2 -18 1 -39
-2 -47z m-1009 -555 c-3 -8 -6 -5 -6 6 -1 11 2 17 5 13 3 -3 4 -12 1 -19z m60
-20 c-3 -7 -5 -2 -5 12 0 14 2 19 5 13 2 -7 2 -19 0 -25z m-20 0 c-3 -8 -6 -5
-6 6 -1 11 2 17 5 13 3 -3 4 -12 1 -19z m-150 -40 c-3 -8 -6 -5 -6 6 -1 11 2
17 5 13 3 -3 4 -12 1 -19z m160 -15 c-3 -10 -5 -4 -5 12 0 17 2 24 5 18 2 -7
2 -21 0 -30z m20 5 c-3 -8 -6 -5 -6 6 -1 11 2 17 5 13 3 -3 4 -12 1 -19z m40
-20 c-3 -8 -6 -5 -6 6 -1 11 2 17 5 13 3 -3 4 -12 1 -19z m-110 -40 c-3 -8 -6
-5 -6 6 -1 11 2 17 5 13 3 -3 4 -12 1 -19z m21 -13 c-2 -19 0 -35 4 -35 13 0
9 -48 -4 -53 -9 -4 -7 -6 3 -6 18 -1 53 27 62 49 4 11 6 10 6 -5 1 -13 -14
-30 -44 -48 -25 -16 -47 -32 -50 -36 -6 -10 16 -81 24 -77 3 2 6 -14 6 -35 1
-27 -2 -35 -8 -24 -4 8 -12 13 -16 10 -5 -2 -14 17 -21 43 -7 26 -17 51 -21
57 -5 5 -8 25 -8 45 1 28 3 30 7 10 4 -23 5 -24 13 -5 7 18 8 18 8 2 2 -38 21
-4 21 37 0 47 10 106 17 106 3 0 3 -16 1 -35z m39 -12 c-3 -10 -5 -4 -5 12 0
17 2 24 5 18 2 -7 2 -21 0 -30z m20 5 c-3 -7 -5 -2 -5 12 0 14 2 19 5 13 2 -7
2 -19 0 -25z m40 0 c-3 -7 -5 -2 -5 12 0 14 2 19 5 13 2 -7 2 -19 0 -25z m200
-50 c16 -18 45 -50 66 -73 21 -22 52 -67 68 -100 16 -33 38 -73 49 -90 10 -16
19 -37 19 -45 2 -32 50 -86 99 -110 28 -14 52 -33 55 -42 8 -29 -17 -26 -35 3
-10 16 -41 39 -73 54 -31 15 -75 41 -98 58 -23 18 -60 44 -82 59 -22 15 -61
50 -85 78 -25 28 -67 73 -94 101 -63 65 -51 78 14 14 27 -27 53 -46 56 -42 4
4 2 7 -5 7 -7 0 -10 4 -7 8 6 9 -117 122 -133 122 -6 0 -11 5 -11 10 0 41 120
-40 160 -108 22 -37 36 -38 25 -1 -9 28 -83 109 -110 120 -14 5 -2 8 37 8 53
1 60 -2 85 -31z m828 23 c3 -5 1 -12 -5 -16 -5 -3 -10 1 -10 9 0 18 6 21 15 7z
m-1178 -23 c-3 -8 -6 -5 -6 6 -1 11 2 17 5 13 3 -3 4 -12 1 -19z m-20 -10 c-3
-8 -6 -5 -6 6 -1 11 2 17 5 13 3 -3 4 -12 1 -19z m304 -95 c13 -16 12 -17 -3
-4 -10 7 -18 15 -18 17 0 8 8 3 21 -13z m1413 -123 c4 -25 3 -31 -4 -20 -5 8
-10 26 -10 39 0 32 6 24 14 -19z m-1890 -8 c9 -32 25 -127 41 -241 14 -94 14
-115 3 -122 -9 -6 -15 0 -20 24 -13 59 -58 329 -58 348 0 22 27 15 34 -9z
m100 -193 c14 -90 23 -165 21 -168 -3 -2 -5 2 -6 10 -1 8 -4 3 -8 -11 -5 -18
-14 14 -34 115 -36 189 -43 250 -28 241 6 -4 11 -1 12 6 1 37 21 -49 43 -193z
m30 165 c9 -8 16 -27 16 -40 0 -14 4 -23 9 -20 5 4 7 -2 4 -12 -2 -10 3 -61
11 -115 19 -118 20 -124 2 -130 -11 -5 -19 16 -33 94 -11 63 -20 93 -25 82 -4
-10 -5 5 -2 32 3 33 1 43 -4 30 -6 -13 -9 -2 -8 38 1 60 5 66 30 41z m1766
-169 c6 -44 30 -158 51 -254 22 -95 38 -176 35 -178 -10 -10 -73 262 -96 412
-6 39 -17 98 -25 133 -8 35 -15 66 -14 70 3 20 38 -114 49 -183z m-1676 77
c35 -196 37 -222 22 -237 -12 -13 -16 -2 -32 81 -12 65 -20 90 -25 77 -4 -10
-6 5 -3 32 2 29 1 42 -4 32 -4 -11 -7 7 -7 46 0 55 2 63 17 59 12 -3 20 -27
32 -90z m1831 -47 c8 -54 13 -100 11 -102 -6 -6 -26 84 -33 150 -9 95 6 62 22
-48z m-2018 73 c-3 -8 -6 -5 -6 6 -1 11 2 17 5 13 3 -3 4 -12 1 -19z m2061
-58 l0 -25 -8 25 c-4 14 -8 36 -8 50 l0 25 8 -25 c4 -14 8 -36 8 -50z m-1861
38 c-3 -8 -6 -5 -6 6 -1 11 2 17 5 13 3 -3 4 -12 1 -19z m-260 -20 c-3 -7 -5
-2 -5 12 0 14 2 19 5 13 2 -7 2 -19 0 -25z m1661 1 c-3 -8 -7 -3 -11 10 -4 17
-3 21 5 13 5 -5 8 -16 6 -23z m-1791 -1 c-3 -8 -6 -5 -6 6 -1 11 2 17 5 13 3
-3 4 -12 1 -19z m1768 -50 c9 -34 20 -69 23 -77 3 -11 2 -13 -6 -6 -13 12 -54
158 -43 151 5 -3 16 -33 26 -68z m582 50 c-3 -8 -6 -5 -6 6 -1 11 2 17 5 13 3
-3 4 -12 1 -19z m-2150 -30 c-3 -7 -5 -2 -5 12 0 14 2 19 5 13 2 -7 2 -19 0
-25z m1900 10 c-3 -8 -6 -5 -6 6 -1 11 2 17 5 13 3 -3 4 -12 1 -19z m-1700
-20 c-3 -7 -5 -2 -5 12 0 14 2 19 5 13 2 -7 2 -19 0 -25z m130 10 c-3 -8 -6
-5 -6 6 -1 11 2 17 5 13 3 -3 4 -12 1 -19z m1799 -80 c4 -17 2 -28 -4 -28 -15
0 -22 26 -21 78 l1 47 9 -35 c4 -19 11 -47 15 -62z m-259 60 c-3 -8 -6 -5 -6
6 -1 11 2 17 5 13 3 -3 4 -12 1 -19z m114 -94 c10 -59 17 -109 16 -111 -6 -6
-36 119 -43 177 -11 91 6 50 27 -66z m176 94 c-3 -8 -6 -5 -6 6 -1 11 2 17 5
13 3 -3 4 -12 1 -19z m-1890 -10 c-3 -8 -6 -5 -6 6 -1 11 2 17 5 13 3 -3 4
-12 1 -19z m1430 -10 c-3 -8 -6 -5 -6 6 -1 11 2 17 5 13 3 -3 4 -12 1 -19z
m369 -33 c9 -53 -2 -42 -15 14 -5 24 -6 39 -1 35 5 -5 12 -27 16 -49z m-1729
13 c-3 -7 -5 -2 -5 12 0 14 2 19 5 13 2 -7 2 -19 0 -25z m1507 -98 c31 -144
66 -331 66 -355 0 -53 -20 31 -80 340 -12 61 -24 119 -27 130 -4 14 -2 17 5
10 6 -5 22 -62 36 -125z m82 -94 c34 -140 41 -182 23 -136 -15 37 -79 315 -78
336 1 11 5 1 11 -21 5 -22 25 -103 44 -179z m-186 108 c12 -36 19 -68 16 -71
-6 -7 -10 3 -26 65 -6 24 -14 50 -17 58 -3 8 -3 14 0 14 3 0 15 -30 27 -66z
m-1393 34 c-3 -8 -6 -5 -6 6 -1 11 2 17 5 13 3 -3 4 -12 1 -19z m-778 -170
c12 -88 20 -162 17 -165 -3 -3 -11 -3 -19 0 -10 4 -19 46 -31 139 -10 73 -20
147 -23 165 -4 28 -2 31 14 27 17 -5 22 -26 42 -166z m2679 153 c3 -8 -1 -12
-9 -9 -7 2 -15 10 -17 17 -3 8 1 12 9 9 7 -2 15 -10 17 -17z m-2748 -132 c22
-151 25 -203 10 -194 -5 3 -10 -2 -10 -11 0 -44 -10 1 -20 87 -5 51 -16 127
-22 167 -10 62 -10 75 2 82 8 5 16 8 17 6 2 -2 12 -63 23 -137z m100 126 c3
27 22 -49 35 -136 17 -113 19 -173 6 -165 -5 4 -12 0 -14 -6 -4 -9 -6 -8 -6 2
-1 8 -10 78 -21 155 -23 162 -24 177 -10 155 5 -8 10 -10 10 -5z m-167 -108
c24 -151 31 -261 18 -253 -7 5 -11 -3 -12 -21 -2 -38 -15 41 -34 202 -9 72
-18 142 -21 157 -5 23 -3 26 14 22 16 -5 22 -22 35 -107z m1437 42 c0 -5 -9
-9 -20 -9 -16 0 -20 7 -20 33 l1 32 19 -24 c11 -13 20 -27 20 -32z m1085 -15
c15 -66 12 -88 -4 -28 -19 75 -24 99 -17 92 4 -3 13 -32 21 -64z m-2601 37
c12 -46 17 -83 31 -218 18 -174 18 -172 5 -153 -7 11 -8 6 -4 -17 4 -19 2 -33
-3 -33 -10 0 -13 18 -38 235 -8 66 -17 138 -20 161 -6 33 -4 41 9 41 9 0 18
-7 20 -16z m320 10 c3 8 4 2 2 -13 -1 -15 0 -26 4 -23 3 2 12 -35 19 -83 6
-48 15 -98 18 -111 4 -17 2 -22 -6 -17 -6 4 -11 0 -11 -10 0 -43 -12 2 -25 92
-25 172 -26 180 -16 165 7 -11 10 -11 15 0z m-450 -36 c5 -22 4 -26 -4 -15 -5
8 -10 24 -10 34 0 26 6 18 14 -19z m3026 -1 c0 -8 -4 -12 -10 -9 -5 3 -10 13
-10 21 0 8 5 12 10 9 6 -3 10 -13 10 -21z m-391 -201 c34 -205 33 -191 16
-169 -8 11 -15 31 -15 45 0 14 -4 42 -10 61 -5 19 -16 80 -24 135 -9 55 -18
111 -21 125 -3 14 3 4 13 -22 11 -25 29 -104 41 -175z m-2845 125 c-20 -35
-43 -70 -52 -78 -15 -14 -15 -13 -1 4 10 13 11 20 3 23 -19 6 44 113 66 113
17 0 15 -7 -16 -62z m989 32 c3 -11 1 -18 -4 -14 -5 3 -9 12 -9 20 0 20 7 17
13 -6z m-57 -26 c-15 -14 -16 -14 -16 4 0 11 6 22 13 25 19 6 21 -11 3 -29z
m148 14 c8 -33 7 -40 -4 -33 -5 3 -10 -1 -10 -9 0 -19 20 -32 21 -14 2 17 16
-41 17 -67 l1 -20 -9 20 c-7 17 -9 16 -10 -10 -2 -25 -4 -22 -14 20 -24 97
-27 135 -12 135 7 0 16 -10 20 -22z m63 0 c-3 -8 -6 -5 -6 6 -1 11 2 17 5 13
3 -3 4 -12 1 -19z m-20 -10 c-3 -8 -6 -5 -6 6 -1 11 2 17 5 13 3 -3 4 -12 1
-19z m2113 -4 c0 -8 -4 -12 -10 -9 -5 3 -10 13 -10 21 0 8 5 12 10 9 6 -3 10
-13 10 -21z m-451 -46 c12 -35 28 -110 36 -168 8 -58 17 -116 20 -130 5 -24 4
-24 -11 4 -9 15 -25 78 -35 140 -11 61 -24 129 -29 151 -20 86 -9 87 19 3z
m-1592 30 c-3 -8 -6 -5 -6 6 -1 11 2 17 5 13 3 -3 4 -12 1 -19z m-950 -10 c-3
-8 -6 -5 -6 6 -1 11 2 17 5 13 3 -3 4 -12 1 -19z m774 -3 c5 4 9 -1 9 -10 0
-9 -4 -13 -10 -10 -5 3 -10 -1 -10 -10 0 -9 5 -13 10 -10 6 3 13 -2 17 -11 4
-10 2 -19 -4 -21 -7 -3 -9 -18 -6 -41 11 -68 -6 -26 -22 54 -18 92 -18 95 -4
71 6 -9 14 -15 20 -12z m1954 -41 c6 -44 1 -37 -14 20 -7 26 -7 36 0 29 5 -5
12 -27 14 -49z m-2658 14 c-3 -7 -5 -2 -5 12 0 14 2 19 5 13 2 -7 2 -19 0 -25z
m633 12 c2 18 6 11 15 -25 7 -27 13 -59 13 -70 l1 -20 -9 20 c-8 18 -9 18 -10
-5 -1 -23 -2 -23 -9 -5 -5 11 -11 45 -14 75 -4 37 -3 47 2 30 l9 -25 2 25z
m204 -14 c9 4 16 -7 20 -33 4 -21 10 -49 12 -63 4 -22 3 -22 -10 5 -12 25 -15
26 -16 10 -1 -17 -3 -16 -9 5 -4 14 -11 43 -14 65 -3 22 -3 32 -1 23 3 -9 11
-15 18 -12z m2085 2 c5 -13 7 -25 4 -28 -5 -6 -33 30 -33 42 0 17 21 7 29 -14z
m-2852 -25 c-3 -10 -5 -4 -5 12 0 17 2 24 5 18 2 -7 2 -21 0 -30z m70 -35 c-3
-7 -5 -2 -5 12 0 14 2 19 5 13 2 -7 2 -19 0 -25z m760 10 c-3 -8 -6 -5 -6 6
-1 11 2 17 5 13 3 -3 4 -12 1 -19z m-890 -30 c-3 -8 -6 -5 -6 6 -1 11 2 17 5
13 3 -3 4 -12 1 -19z m2840 -60 c-3 -8 -6 -5 -6 6 -1 11 2 17 5 13 3 -3 4 -12
1 -19z m-3032 -18 c-9 -16 -18 -30 -21 -30 -2 0 2 14 11 30 9 17 18 30 21 30
2 0 -2 -13 -11 -30z m-50 -90 c-9 -16 -18 -30 -21 -30 -2 0 2 14 11 30 9 17
18 30 21 30 2 0 -2 -13 -11 -30z m60 -30 c-14 -27 -28 -50 -30 -50 -3 0 6 23
20 50 14 28 28 50 30 50 3 0 -6 -22 -20 -50z m252 8 c-3 -7 -5 -2 -5 12 0 14
2 19 5 13 2 -7 2 -19 0 -25z m650 -70 c-3 -8 -6 -5 -6 6 -1 11 2 17 5 13 3 -3
4 -12 1 -19z m-946 -25 c-12 -20 -14 -14 -5 12 4 9 9 14 11 11 3 -2 0 -13 -6
-23z m406 -45 c-3 -8 -6 -5 -6 6 -1 11 2 17 5 13 3 -3 4 -12 1 -19z m830 -180
c-3 -8 -6 -5 -6 6 -1 11 2 17 5 13 3 -3 4 -12 1 -19z m10 -80 c-3 -7 -5 -2 -5
12 0 14 2 19 5 13 2 -7 2 -19 0 -25z"/>
<path d="M1917 2468 c11 -13 26 -32 32 -43 11 -19 12 -18 5 4 -4 17 -3 21 6
16 9 -5 11 -4 6 4 -4 6 -12 8 -18 5 -7 -5 -9 -1 -5 9 3 9 -1 18 -9 21 -31 12
-37 6 -17 -16z"/>
<path d="M1960 2397 c0 -14 24 -57 32 -57 5 0 1 12 -9 28 -22 35 -23 36 -23
29z"/>
<path d="M2010 2346 c0 -11 30 -39 36 -34 2 3 -5 13 -16 23 -11 10 -20 15 -20
11z"/>
<path d="M2057 5093 c-4 -3 -7 -11 -7 -17 0 -6 5 -5 12 2 6 6 9 14 7 17 -3 3
-9 2 -12 -2z"/>
<path d="M2380 5055 c-17 -20 9 -68 30 -55 12 8 12 10 -5 11 -11 0 -14 3 -7 6
6 2 9 9 6 15 -4 6 -1 14 6 18 9 5 8 9 -3 13 -9 3 -21 0 -27 -8z"/>
<path d="M2740 4859 c0 -5 5 -7 10 -4 6 3 10 8 10 11 0 2 -4 4 -10 4 -5 0 -10
-5 -10 -11z"/>
<path d="M2820 4835 c7 -8 20 -15 29 -15 13 1 13 3 -3 15 -26 19 -42 19 -26 0z"/>
<path d="M2760 2729 c-11 -19 -10 -20 10 -9 11 6 18 15 15 21 -9 13 -13 11
-25 -12z"/>
<path d="M1158 2610 c-14 -20 -17 -22 -17 -7 -1 9 -3 17 -4 17 -12 0 -67 -33
-67 -39 0 -5 21 -14 46 -21 34 -10 49 -20 56 -39 6 -14 14 -34 20 -44 5 -11 7
-21 4 -24 -3 -3 -1 -14 4 -24 8 -13 6 -20 -5 -26 -13 -8 -12 -13 3 -43 14 -29
27 -37 75 -52 52 -16 60 -16 74 -3 8 9 12 22 9 31 -3 8 -2 34 3 57 5 23 12 60
15 82 4 22 9 55 12 73 7 37 -3 41 -43 15 -15 -10 -24 -13 -20 -6 10 16 -8 26
-21 10 -5 -6 -15 -29 -22 -50 -17 -53 -26 -38 -10 18 12 43 7 79 -6 39 -17
-53 -24 -57 -18 -10 4 33 2 46 -5 41 -6 -3 -11 -15 -11 -25 0 -10 -5 -22 -12
-26 -8 -5 -9 4 -4 35 4 28 3 40 -4 36 -5 -3 -10 -15 -10 -25 0 -33 -19 -32
-22 2 l-3 32 -17 -24z"/>
<path d="M2810 2620 c0 -5 5 -10 10 -10 6 0 10 5 10 10 0 6 -4 10 -10 10 -5 0
-10 -4 -10 -10z"/>
<path d="M1437 2603 c-11 -10 -8 -43 3 -43 6 0 10 11 10 25 0 26 -2 29 -13 18z"/>
<path d="M2835 2530 c-3 -5 1 -10 9 -10 9 0 16 5 16 10 0 6 -4 10 -9 10 -6 0
-13 -4 -16 -10z"/>
<path d="M3011 2404 c0 -11 3 -14 6 -6 3 7 2 16 -1 19 -3 4 -6 -2 -5 -13z"/>
<path d="M1130 2375 c-24 -14 -24 -14 -4 -15 12 0 24 7 28 15 6 18 7 18 -24 0z"/>
<path d="M2902 2370 c0 -14 2 -19 5 -12 2 6 2 18 0 25 -3 6 -5 1 -5 -13z"/>
<path d="M2768 2357 c-5 -10 -8 -37 -8 -60 1 -34 3 -38 11 -24 6 9 9 36 7 60
-2 30 -5 37 -10 24z"/>
<path d="M1403 2325 c-17 -19 -16 -25 2 -25 8 0 15 9 15 20 0 23 -1 24 -17 5z"/>
<path d="M1836 2184 c-3 -8 19 -153 50 -322 53 -298 98 -565 111 -667 5 -38 8
-45 15 -30 5 13 6 -3 4 -40 -5 -55 -4 -57 5 -23 12 43 -16 258 -77 588 -19
107 -40 224 -47 259 -8 49 -13 60 -19 45 -6 -14 -7 -11 -4 11 7 44 -14 161
-26 144 -6 -9 -7 -3 -3 19 7 33 2 43 -9 16z m21 -86 c-3 -8 -6 -5 -6 6 -1 11
2 17 5 13 3 -3 4 -12 1 -19z m40 -220 c-3 -8 -6 -5 -6 6 -1 11 2 17 5 13 3 -3
4 -12 1 -19z"/>
<path d="M1905 2160 c-4 -17 -5 -34 -2 -36 3 -3 8 9 12 26 4 17 5 34 2 36 -3
3 -8 -9 -12 -26z"/>
<path d="M650 2149 c0 -5 5 -7 10 -4 6 3 10 8 10 11 0 2 -4 4 -10 4 -5 0 -10
-5 -10 -11z"/>
<path d="M1915 2110 c-4 -17 -5 -34 -2 -36 3 -3 8 9 12 26 4 17 5 34 2 36 -3
3 -8 -9 -12 -26z"/>
<path d="M2665 2127 c-4 -10 0 -47 10 -85 22 -85 30 -130 50 -272 9 -62 32
-167 51 -233 19 -65 34 -131 35 -145 0 -15 5 -36 10 -47 6 -14 8 6 5 62 -3 50
-23 150 -50 255 -24 95 -49 216 -54 268 -13 112 -45 225 -57 197z"/>
<path d="M1986 2094 c-4 -20 -5 -38 -2 -41 2 -3 8 11 12 31 3 21 4 39 1 42 -2
3 -8 -11 -11 -32z"/>
<path d="M1924 2056 c-3 -21 -4 -39 -1 -42 2 -3 8 11 11 32 4 20 5 38 2 41 -2
3 -8 -11 -12 -31z"/>
<path d="M1995 2040 c-4 -17 -5 -34 -2 -36 3 -3 8 9 12 26 4 17 5 34 2 36 -3
3 -8 -9 -12 -26z"/>
<path d="M2066 2024 c-4 -20 -5 -38 -3 -40 3 -3 8 11 11 32 4 20 5 38 3 40 -3
3 -8 -11 -11 -32z"/>
<path d="M1937 2012 c-4 -21 8 -114 37 -275 24 -133 55 -307 67 -385 18 -109
26 -139 32 -123 12 25 -11 190 -65 476 -22 116 -45 239 -52 275 -11 60 -12 63
-19 32z m10 -44 c-3 -8 -6 -5 -6 6 -1 11 2 17 5 13 3 -3 4 -12 1 -19z"/>
<path d="M2007 1990 c-4 -17 12 -132 37 -272 24 -134 50 -278 57 -321 10 -62
15 -74 22 -56 10 29 3 91 -39 314 -54 293 -57 306 -66 293 -5 -7 -5 6 -2 30 7
47 0 58 -9 12z m20 -102 c-3 -8 -6 -5 -6 6 -1 11 2 17 5 13 3 -3 4 -12 1 -19z"/>
<path d="M2523 2009 c-7 -7 -8 -21 -3 -40 5 -16 12 -66 15 -112 4 -45 10 -91
15 -102 20 -49 40 -146 52 -242 1 -7 5 -13 9 -13 4 0 6 15 4 33 -2 17 -6 61
-9 97 -3 36 -14 88 -25 116 -11 28 -23 91 -27 140 -9 113 -15 139 -31 123z"/>
<path d="M2076 1958 c-7 -44 89 -550 99 -525 16 38 -69 511 -87 485 -6 -8 -7
4 -3 30 4 23 4 42 1 42 -3 0 -7 -15 -10 -32z m21 -90 c-3 -8 -6 -5 -6 6 -1 11
2 17 5 13 3 -3 4 -12 1 -19z"/>
<path d="M267 1945 c-24 -50 -20 -58 4 -12 11 22 19 41 17 43 -3 2 -12 -12
-21 -31z"/>
<path d="M2146 1934 c-4 -20 -5 -38 -3 -40 3 -3 8 11 11 32 4 20 5 38 3 40 -3
3 -8 -11 -11 -32z"/>
<path d="M2486 1890 c2 -41 9 -88 14 -105 5 -16 13 -64 19 -105 6 -41 20 -132
31 -202 29 -185 57 -454 66 -638 2 -47 12 -161 21 -255 15 -140 19 -159 21
-106 2 36 -2 103 -8 150 -6 47 -16 149 -20 226 -17 256 -28 389 -44 485 -8 52
-27 176 -41 274 -14 99 -30 187 -35 197 -6 10 -11 35 -11 56 -1 21 -5 52 -10
68 -6 20 -7 5 -3 -45z"/>
<path d="M306 1849 c-24 -52 -46 -105 -50 -119 -3 -14 19 26 49 89 30 63 53
116 50 119 -3 3 -25 -37 -49 -89z"/>
<path d="M2156 1886 c-10 -41 43 -315 57 -291 12 22 4 90 -26 220 -20 84 -25
95 -31 71z"/>
<path d="M261 1819 c-12 -28 -20 -53 -18 -55 2 -3 14 18 26 47 12 28 20 53 18
55 -2 3 -14 -18 -26 -47z"/>
<path d="M2443 1816 c4 -10 7 -22 7 -27 0 -5 4 -9 9 -9 12 0 2 38 -12 47 -7 4
-8 0 -4 -11z"/>
<path d="M222 1795 c-17 -37 -14 -45 4 -12 9 16 14 31 11 33 -2 2 -9 -7 -15
-21z"/>
<path d="M380 1769 c0 -5 5 -7 10 -4 6 3 10 8 10 11 0 2 -4 4 -10 4 -5 0 -10
-5 -10 -11z"/>
<path d="M196 1735 c-9 -26 -7 -32 5 -12 6 10 9 21 6 23 -2 3 -7 -2 -11 -11z"/>
<path d="M226 1735 c-9 -26 -7 -32 5 -12 6 10 9 21 6 23 -2 3 -7 -2 -11 -11z"/>
<path d="M185 1620 c-9 -28 -15 -53 -13 -56 3 -2 12 19 22 47 9 29 14 54 12
56 -2 2 -12 -19 -21 -47z"/>
<path d="M231 1654 c0 -11 3 -14 6 -6 3 7 2 16 -1 19 -3 4 -6 -2 -5 -13z"/>
<path d="M509 1568 c-26 -51 -37 -84 -31 -93 6 -11 17 3 40 51 18 36 29 70 26
76 -4 7 -2 8 4 4 6 -3 16 2 21 13 14 26 14 28 -5 28 -9 0 -31 -31 -55 -79z
m12 -11 c-10 -9 -11 -8 -5 6 3 10 9 15 12 12 3 -3 0 -11 -7 -18z m-30 -64
c-12 -20 -14 -14 -5 12 4 9 9 14 11 11 3 -2 0 -13 -6 -23z"/>
<path d="M3751 1616 c-1 -29 2 -37 10 -29 8 8 8 19 1 40 -10 28 -10 28 -11
-11z"/>
<path d="M353 1585 c0 -33 2 -45 4 -27 2 18 2 45 0 60 -2 15 -4 0 -4 -33z"/>
<path d="M333 1540 c-1 -47 3 -128 7 -180 l7 -95 0 120 c1 66 -3 147 -7 180
-7 60 -7 60 -7 -25z"/>
<path d="M746 1585 c-10 -15 -15 -33 -12 -41 3 -7 1 -13 -5 -11 -6 1 -36 -46
-67 -105 -46 -88 -54 -110 -46 -129 9 -20 12 -17 32 35 23 62 52 109 52 87 0
-10 4 -10 13 -3 9 8 12 4 13 -16 1 -15 -1 -21 -4 -13 -2 7 -18 -21 -34 -63
-25 -63 -28 -81 -19 -104 10 -26 11 -26 5 7 -5 25 -3 32 6 26 9 -5 10 -1 5 15
-4 14 -3 20 3 16 5 -3 18 18 30 47 11 29 34 75 51 102 29 46 40 85 23 85 -4 0
-13 -9 -20 -21 -7 -12 -16 -18 -19 -15 -4 3 -13 1 -20 -6 -9 -7 -6 7 8 35 12
25 26 44 30 41 8 -4 5 43 -3 52 -3 2 -13 -7 -22 -21z m-115 -266 c-5 -13 -10
-19 -10 -12 -1 15 10 45 15 40 3 -2 0 -15 -5 -28z"/>
<path d="M2426 1587 c3 -10 9 -15 12 -12 3 3 0 11 -7 18 -10 9 -11 8 -5 -6z"/>
<path d="M205 1560 c-4 -17 -5 -34 -2 -36 3 -3 8 9 12 26 4 17 5 34 2 36 -3 3
-8 -9 -12 -26z"/>
<path d="M283 1535 c0 -33 2 -45 4 -27 2 18 2 45 0 60 -2 15 -4 0 -4 -33z"/>
<path d="M2252 1525 c0 -66 10 -116 20 -99 4 5 1 44 -7 85 l-13 74 0 -60z"/>
<path d="M238 1545 c-3 -14 -1 -25 3 -25 5 0 9 11 9 25 0 14 -2 25 -4 25 -2 0
-6 -11 -8 -25z"/>
<path d="M393 1380 c0 -74 3 -216 6 -315 l7 -180 2 191 c1 105 4 247 6 315 3
73 2 105 -3 79 l-7 -45 -5 45 c-3 25 -6 -16 -6 -90z"/>
<path d="M187 1476 c-4 -10 -5 -21 -2 -24 9 -9 17 6 13 25 -3 17 -4 17 -11 -1z"/>
<path d="M2608 1473 c-2 -10 2 -54 10 -98 7 -44 19 -117 26 -163 14 -84 26
-117 26 -68 0 47 -46 334 -55 344 -2 2 -5 -5 -7 -15z"/>
<path d="M460 1460 c0 -8 5 -22 10 -30 9 -13 10 -13 10 0 0 8 -5 22 -10 30 -9
13 -10 13 -10 0z"/>
<path d="M268 1365 c2 -55 6 -102 8 -104 7 -8 2 144 -6 174 -4 17 -5 -15 -2
-70z"/>
<path d="M3745 1450 c-3 -5 -1 -18 4 -27 9 -16 10 -14 11 10 0 28 -5 34 -15
17z"/>
<path d="M131 1424 c0 -11 3 -14 6 -6 3 7 2 16 -1 19 -3 4 -6 -2 -5 -13z"/>
<path d="M175 1429 c-4 -6 -5 -12 -2 -15 2 -3 7 2 10 11 7 17 1 20 -8 4z"/>
<path d="M2222 1420 c0 -14 2 -19 5 -12 2 6 2 18 0 25 -3 6 -5 1 -5 -13z"/>
<path d="M1456 1396 c-4 -21 -2 -97 6 -170 10 -101 14 -123 20 -96 4 20 5 -1
3 -50 -4 -74 -3 -79 6 -40 9 44 -2 256 -20 355 l-7 40 -8 -39z"/>
<path d="M2681 1396 c-1 -38 11 -121 32 -226 20 -96 21 -9 2 114 -20 128 -33
172 -34 112z"/>
<path d="M328 1205 c2 -121 6 -222 8 -224 6 -7 2 214 -6 334 -5 71 -6 32 -2
-110z"/>
<path d="M510 1415 c0 -5 5 -17 10 -25 5 -8 10 -10 10 -5 0 6 -5 17 -10 25 -5
8 -10 11 -10 5z"/>
<path d="M211 1394 c0 -11 3 -14 6 -6 3 7 2 16 -1 19 -3 4 -6 -2 -5 -13z"/>
<path d="M457 1394 c-4 -4 -6 -125 -5 -268 2 -259 3 -260 8 -81 l5 180 5 -200
6 -200 1 265 c1 254 -3 320 -20 304z"/>
<path d="M760 1389 c0 -5 5 -7 10 -4 6 3 10 8 10 11 0 2 -4 4 -10 4 -5 0 -10
-5 -10 -11z"/>
<path d="M1312 1380 c0 -14 2 -19 5 -12 2 6 2 18 0 25 -3 6 -5 1 -5 -13z"/>
<path d="M500 1374 c0 -10 5 -26 10 -34 8 -11 9 -7 4 15 -8 37 -14 45 -14 19z"/>
<path d="M2451 1374 c0 -11 3 -14 6 -6 3 7 2 16 -1 19 -3 4 -6 -2 -5 -13z"/>
<path d="M3721 1378 c0 -7 4 -22 9 -33 8 -18 9 -17 9 7 1 15 -3 30 -9 33 -5 3
-10 0 -9 -7z"/>
<path d="M165 1370 c3 -5 8 -10 11 -10 2 0 4 5 4 10 0 6 -5 10 -11 10 -5 0 -7
-4 -4 -10z"/>
<path d="M1261 1364 c0 -11 3 -14 6 -6 3 7 2 16 -1 19 -3 4 -6 -2 -5 -13z"/>
<path d="M1327 1350 c-7 -33 -3 -150 9 -269 4 -40 9 -50 16 -40 7 10 8 0 4
-31 -5 -42 -4 -43 6 -15 11 29 -2 246 -21 350 l-7 40 -7 -35z"/>
<path d="M1381 1364 c0 -11 3 -14 6 -6 3 7 2 16 -1 19 -3 4 -6 -2 -5 -13z"/>
<path d="M3590 1371 c0 -5 9 -7 20 -4 11 3 20 7 20 9 0 2 -9 4 -20 4 -11 0
-20 -4 -20 -9z"/>
<path d="M1394 1335 c-4 -21 -2 -95 5 -164 6 -69 12 -133 12 -141 1 -8 5 -1 9
15 7 28 8 27 10 -15 1 -25 4 -40 6 -33 6 13 -23 364 -30 371 -3 2 -8 -13 -12
-33z"/>
<path d="M2272 1340 c0 -14 2 -19 5 -12 2 6 2 18 0 25 -3 6 -5 1 -5 -13z"/>
<path d="M2 1330 c0 -14 2 -19 5 -12 2 6 2 18 0 25 -3 6 -5 1 -5 -13z"/>
<path d="M551 1340 c0 -8 4 -22 9 -30 12 -18 12 -2 0 25 -6 13 -9 15 -9 5z"/>
<path d="M1182 1325 c0 -16 2 -22 5 -12 2 9 2 23 0 30 -3 6 -5 -1 -5 -18z"/>
<path d="M3183 1310 c0 -25 2 -35 4 -22 2 12 2 32 0 45 -2 12 -4 2 -4 -23z"/>
<path d="M3603 1267 c-41 -79 -42 -85 -36 -149 6 -72 -3 -158 -18 -158 -5 0
-9 41 -9 92 0 123 -20 105 -29 -26 -8 -105 -15 -125 -26 -75 l-7 32 -15 -34
c-8 -19 -18 -89 -23 -160 -8 -128 -17 -158 -63 -222 -12 -15 -25 -27 -30 -27
-5 0 -4 6 2 13 6 8 8 17 4 20 -3 4 -2 7 4 7 6 0 13 9 16 20 6 23 -28 39 -46
21 -8 -8 -7 -11 3 -11 13 0 13 -2 1 -9 -13 -8 -13 -17 0 -68 17 -71 18 -213 1
-270 -13 -45 -27 -55 -35 -26 -4 15 -5 15 -6 2 0 -9 6 -22 14 -29 16 -13 21
-60 7 -60 -5 0 -14 10 -20 23 -6 12 -11 17 -11 11 -1 -7 5 -24 13 -40 10 -19
12 -33 5 -45 -6 -11 -5 -27 1 -43 5 -14 7 -33 4 -41 -5 -13 16 -15 163 -15
121 0 173 4 182 12 11 10 14 10 18 1 3 -10 41 -13 139 -13 l134 0 0 31 c0 18
-7 37 -15 43 -9 6 -18 29 -22 51 -6 36 -5 39 10 26 10 -7 17 -22 17 -32 0 -11
4 -19 9 -19 5 0 7 18 4 40 -5 33 -3 40 11 40 9 0 16 8 16 20 0 21 -15 27 -25
9 -4 -6 -13 -8 -20 -5 -8 3 -19 -1 -25 -9 -6 -8 -17 -12 -25 -9 -7 3 -16 1
-20 -5 -3 -6 -13 -11 -22 -11 -12 0 -14 7 -9 34 8 41 -13 66 -34 41 -10 -12
-16 -13 -26 -4 -15 12 -19 39 -6 39 4 0 14 -4 22 -10 9 -5 19 -5 27 2 15 12
43 -6 43 -28 0 -8 5 -14 10 -14 6 0 10 7 10 15 0 17 16 20 25 5 9 -15 68 23
83 54 8 15 12 29 10 31 -2 2 -28 -3 -58 -12 -40 -12 -55 -13 -58 -4 -3 9 -7 9
-18 0 -7 -6 -20 -9 -29 -6 -8 4 -17 2 -20 -2 -3 -5 -14 -7 -25 -4 -12 3 -20 0
-20 -6 0 -7 -8 -11 -17 -9 -15 2 -18 -3 -15 -29 2 -37 -20 -46 -37 -15 -10 16
-10 16 -11 -1 0 -23 -29 -34 -41 -16 -13 20 -11 67 3 75 6 4 16 0 23 -9 22
-30 35 13 16 51 -5 9 -15 31 -22 47 -9 22 -13 26 -16 13 -2 -9 1 -26 6 -37 8
-14 8 -22 0 -27 -19 -11 -41 22 -39 60 2 40 2 76 -1 181 -2 58 -4 65 -11 40
-5 -16 -8 -68 -6 -115 1 -47 -1 -91 -6 -98 -4 -7 -5 -24 -2 -38 5 -17 2 -24
-8 -24 -15 0 -30 45 -21 61 7 11 -5 192 -12 185 -3 -2 -5 -45 -4 -95 0 -50 -4
-93 -10 -96 -5 -4 -7 -23 -3 -43 5 -31 4 -35 -7 -24 -22 21 -24 211 -3 302 10
41 18 110 18 152 1 50 6 81 14 90 12 11 13 -9 8 -122 -5 -130 -5 -133 10 -90
19 56 37 332 25 393 -14 77 -2 146 34 197 39 56 52 90 33 90 -7 0 -32 -37 -55
-83z m-103 -462 c0 -14 -4 -25 -10 -25 -5 0 -10 11 -10 25 0 14 5 25 10 25 6
0 10 -11 10 -25z m-30 -390 c0 -8 -4 -15 -10 -15 -5 0 -7 7 -4 15 4 8 8 15 10
15 2 0 4 -7 4 -15z m144 -171 c9 -24 7 -34 -8 -34 -16 0 -29 27 -20 41 8 14
21 11 28 -7z m-54 -30 c0 -8 -7 -14 -15 -14 -15 0 -21 21 -9 33 10 9 24 -2 24
-19z m-59 -17 c-13 -13 -26 -3 -16 12 3 6 11 8 17 5 6 -4 6 -10 -1 -17z m307
-20 c2 -10 -4 -20 -13 -23 -21 -9 -28 0 -20 26 8 24 28 22 33 -3z m-48 -48 c0
-10 4 -21 10 -24 5 -3 8 -19 6 -36 -3 -31 -16 -53 -16 -27 0 9 -6 21 -14 27
-7 6 -14 32 -14 57 -1 39 1 44 13 34 8 -7 15 -21 15 -31z m-44 -66 c-10 -25
-34 -1 -38 38 -2 22 -1 42 1 45 8 8 42 -69 37 -83z m-351 9 c-5 -5 -25 43 -25
61 1 7 7 -3 16 -22 8 -19 12 -36 9 -39z m275 38 c0 -10 5 -22 10 -25 15 -10
12 -35 -5 -35 -8 0 -15 6 -15 14 0 7 -3 28 -7 46 -4 24 -3 31 5 26 7 -4 12
-16 12 -26z m239 -2 c8 -21 8 -35 1 -42 -13 -13 -20 -5 -27 38 -7 45 11 48 26
4z m-51 -21 c2 -20 -1 -37 -6 -37 -14 0 -35 57 -27 70 13 21 30 4 33 -33z
m-228 -27 c0 -5 -4 -10 -10 -10 -5 0 -10 5 -10 10 0 6 5 10 10 10 6 0 10 -4
10 -10z"/>
<path d="M1132 1320 c0 -14 2 -19 5 -12 2 6 2 18 0 25 -3 6 -5 1 -5 -13z"/>
<path d="M1257 1240 c5 -140 13 -197 23 -180 6 10 10 7 13 -11 3 -13 3 23 0
81 -6 116 -19 211 -23 170 -2 -21 -4 -20 -10 10 -4 19 -5 -12 -3 -70z"/>
<path d="M3570 1289 c-16 -65 -7 -74 14 -13 18 55 19 64 7 64 -5 0 -14 -23
-21 -51z"/>
<path d="M201 1298 c-1 -21 4 -38 9 -38 11 0 11 14 0 50 -7 22 -8 21 -9 -12z"/>
<path d="M1197 1295 c-9 -50 -7 -171 3 -210 4 -16 8 -23 9 -15 1 13 2 13 12 0
11 -15 4 124 -10 220 l-7 45 -7 -40z m10 -67 c-3 -7 -5 -2 -5 12 0 14 2 19 5
13 2 -7 2 -19 0 -25z"/>
<path d="M3851 1240 c16 -76 29 -111 29 -80 0 22 -32 144 -40 153 -4 4 1 -29
11 -73z"/>
<path d="M2831 1250 c-1 -72 21 -172 33 -152 4 7 2 36 -3 65 -6 28 -15 75 -20
102 l-9 50 -1 -65z"/>
<path d="M3701 1294 c0 -11 3 -14 6 -6 3 7 2 16 -1 19 -3 4 -6 -2 -5 -13z"/>
<path d="M3136 1235 c3 -38 10 -88 14 -110 6 -28 7 -15 3 43 -3 46 -9 96 -14
110 -6 18 -7 3 -3 -43z"/>
<path d="M253 1225 c0 -38 2 -53 4 -32 2 20 2 52 0 70 -2 17 -4 1 -4 -38z"/>
<path d="M601 1285 c1 -19 18 -51 18 -35 0 8 -4 22 -9 30 -5 8 -9 11 -9 5z"/>
<path d="M2270 1258 c0 -49 21 -148 31 -148 12 0 12 2 -6 94 -17 89 -25 106
-25 54z"/>
<path d="M1126 1225 c2 -27 4 -75 5 -105 0 -38 3 -49 8 -35 8 19 9 18 13 -5 3
-14 6 2 6 35 1 67 -14 159 -18 115 -2 -21 -4 -20 -10 10 -6 29 -7 26 -4 -15z"/>
<path d="M751 1254 c0 -11 3 -14 6 -6 3 7 2 16 -1 19 -3 4 -6 -2 -5 -13z"/>
<path d="M1065 1214 c-8 -66 3 -164 16 -143 5 8 8 39 8 69 -1 44 -3 50 -10 30
-5 -16 -6 -4 -3 38 7 77 -1 82 -11 6z"/>
<path d="M3667 1263 c-3 -5 -1 -17 4 -28 7 -17 8 -17 8 8 1 27 -4 34 -12 20z"/>
<path d="M523 1045 c-1 -139 2 -211 8 -195 6 17 7 1 5 -50 -3 -46 -1 -67 4
-55 5 11 8 126 7 255 -1 167 -3 202 -6 120 l-5 -115 -6 130 c-5 113 -6 102 -7
-90z m14 -137 c-2 -18 -4 -6 -4 27 0 33 2 48 4 33 2 -15 2 -42 0 -60z"/>
<path d="M731 1250 c0 -8 4 -24 9 -35 5 -13 9 -14 9 -5 0 8 -4 24 -9 35 -5 13
-9 14 -9 5z"/>
<path d="M3192 1230 c0 -19 2 -27 5 -17 2 9 2 25 0 35 -3 9 -5 1 -5 -18z"/>
<path d="M941 1215 c-1 -11 -4 -31 -6 -45 l-6 -25 11 25 c6 13 9 33 7 45 -4
19 -4 19 -6 0z"/>
<path d="M1548 1186 c-5 -27 -7 -70 -7 -95 l1 -46 10 55 c5 30 7 73 6 95 l-3
40 -7 -49z"/>
<path d="M3630 1205 c-6 -64 -7 -102 -2 -155 6 -51 6 -53 12 -20 3 19 3 73 0
120 -4 47 -8 72 -10 55z"/>
<path d="M652 1200 c0 -14 2 -19 5 -12 2 6 2 18 0 25 -3 6 -5 1 -5 -13z"/>
<path d="M722 1205 c0 -11 4 -33 8 -50 l8 -30 0 30 c0 17 -3 39 -8 50 l-9 20
1 -20z"/>
<path d="M792 1210 c0 -8 4 -26 8 -40 6 -20 8 -21 8 -5 0 11 -3 29 -8 40 -5
12 -8 14 -8 5z"/>
<path d="M871 1204 c0 -11 3 -14 6 -6 3 7 2 16 -1 19 -3 4 -6 -2 -5 -13z"/>
<path d="M1007 1170 c-4 -25 -3 -58 1 -75 l9 -30 6 30 c3 17 2 50 -2 75 l-7
45 -7 -45z m10 -52 c-3 -8 -6 -5 -6 6 -1 11 2 17 5 13 3 -3 4 -12 1 -19z"/>
<path d="M2225 1164 c3 -28 12 -75 20 -105 12 -50 13 -51 14 -18 1 45 -19 151
-31 164 -7 6 -8 -8 -3 -41z"/>
<path d="M1616 1126 c-4 -43 -5 -80 -2 -83 6 -6 19 120 14 143 -2 10 -7 -16
-12 -60z"/>
<path d="M2903 1152 c3 -28 11 -60 17 -70 9 -13 10 -3 5 43 -3 33 -11 64 -17
70 -8 7 -9 -5 -5 -43z"/>
<path d="M3810 1184 c0 -10 12 -56 27 -103 24 -74 28 -81 31 -54 2 18 -7 62
-19 98 -22 66 -39 91 -39 59z"/>
<path d="M384 1060 c0 -74 1 -105 3 -67 2 37 2 97 0 135 -2 37 -3 6 -3 -68z"/>
<path d="M313 1105 c0 -44 2 -61 4 -37 2 23 2 59 0 80 -2 20 -4 1 -4 -43z"/>
<path d="M785 1140 c4 -32 2 -39 -4 -25 l-10 20 1 -20 c0 -11 3 -33 7 -50 7
-29 7 -28 14 16 3 25 2 59 -3 75 -8 25 -9 22 -5 -16z"/>
<path d="M3204 1130 c3 -30 6 -65 6 -77 0 -13 4 -23 8 -23 9 0 -5 141 -15 150
-3 3 -3 -20 1 -50z"/>
<path d="M946 1139 c-3 -18 -4 -34 -2 -36 2 -3 7 10 11 27 4 17 5 34 2 36 -2
3 -7 -10 -11 -27z"/>
<path d="M662 1140 c0 -14 2 -19 5 -12 2 6 2 18 0 25 -3 6 -5 1 -5 -13z"/>
<path d="M717 1090 c3 -41 7 -77 9 -79 7 -8 2 94 -6 124 -5 18 -6 1 -3 -45z"/>
<path d="M642 1120 c0 -19 2 -27 5 -17 2 9 2 25 0 35 -3 9 -5 1 -5 -18z"/>
<path d="M3313 1110 c0 -25 2 -35 4 -22 2 12 2 32 0 45 -2 12 -4 2 -4 -23z"/>
<path d="M3362 1120 c0 -19 2 -27 5 -17 2 9 2 25 0 35 -3 9 -5 1 -5 -18z"/>
<path d="M3676 1134 c-4 -9 -4 -19 -1 -22 2 -3 7 3 11 12 4 9 4 19 1 22 -2 3
-7 -3 -11 -12z"/>
<path d="M2181 1121 c-1 -40 20 -151 29 -151 10 0 3 53 -16 125 -7 29 -13 40
-13 26z"/>
<path d="M593 970 c1 -110 3 -138 6 -85 l5 80 6 -105 c6 -98 6 -95 8 63 1 98
-2 167 -7 167 -5 0 -12 10 -14 23 -2 12 -4 -52 -4 -143z"/>
<path d="M871 1114 c0 -11 3 -14 6 -6 3 7 2 16 -1 19 -3 4 -6 -2 -5 -13z"/>
<path d="M2982 1090 c0 -19 2 -27 5 -17 2 9 2 25 0 35 -3 9 -5 1 -5 -18z"/>
<path d="M886 1095 c-9 -26 -7 -32 5 -12 6 10 9 21 6 23 -2 3 -7 -2 -11 -11z"/>
<path d="M961 1103 c-1 -6 -4 -20 -7 -30 -5 -15 -4 -15 5 -3 9 13 11 12 12 -5
0 -11 3 -15 5 -9 3 6 0 22 -5 35 -5 13 -10 19 -10 12z"/>
<path d="M1555 1037 c-4 -36 -5 -71 -3 -79 3 -7 8 20 13 60 4 40 5 76 2 78 -3
3 -8 -24 -12 -59z"/>
<path d="M2130 1083 c0 -10 5 -25 10 -33 8 -12 10 -9 10 12 0 15 -4 30 -10 33
-5 3 -10 -2 -10 -12z"/>
<path d="M2462 1065 c-11 -23 -10 -24 8 -13 22 14 25 24 11 32 -4 3 -13 -6
-19 -19z"/>
<path d="M39 1048 l-1 -33 -7 30 c-6 25 -9 20 -15 -37 -8 -69 0 -110 15 -70
11 29 23 142 15 142 -3 0 -7 -15 -7 -32z"/>
<path d="M833 1067 c-3 -5 0 -14 6 -20 9 -9 10 -7 5 7 -5 13 -4 17 4 12 6 -3
13 -3 16 2 3 5 -2 9 -10 9 -8 0 -17 -4 -21 -10z"/>
<path d="M1625 1015 c-4 -36 -5 -68 -2 -71 3 -3 8 24 12 61 4 36 5 68 2 71 -3
3 -8 -24 -12 -61z"/>
<path d="M3162 1060 c0 -14 2 -19 5 -12 2 6 2 18 0 25 -3 6 -5 1 -5 -13z"/>
<path d="M703 1025 c0 -27 2 -38 4 -22 2 15 2 37 0 50 -2 12 -4 0 -4 -28z"/>
<path d="M762 970 l1 -105 9 69 c6 43 6 81 0 105 -8 29 -10 17 -10 -69z"/>
<path d="M1086 1055 c-9 -26 -7 -32 5 -12 6 10 9 21 6 23 -2 3 -7 -2 -11 -11z"/>
<path d="M2410 1054 c0 -8 5 -12 10 -9 6 3 10 10 10 16 0 5 -4 9 -10 9 -5 0
-10 -7 -10 -16z"/>
<path d="M2025 1020 c-4 -23 -5 -43 -2 -46 2 -3 7 14 11 37 4 23 5 44 2 46 -2
2 -7 -14 -11 -37z"/>
<path d="M3797 1053 c-4 -7 13 -102 28 -156 6 -21 6 -21 -9 -3 -9 11 -16 25
-16 30 0 6 -5 4 -10 -4 -9 -14 -7 -38 7 -115 5 -26 4 -28 -11 -16 -14 12 -16
8 -16 -38 0 -38 -4 -51 -14 -51 -10 0 -17 -16 -22 -45 -7 -47 -23 -62 -25 -22
-1 25 -3 19 -19 -40 -6 -24 -15 -43 -20 -43 -5 0 -10 30 -12 68 l-3 67 -9 -98
c-6 -75 -5 -105 4 -125 l13 -27 6 30 c7 34 40 48 42 18 1 -10 5 1 11 25 10 45
21 52 37 25 8 -15 10 -10 11 22 0 22 5 47 10 55 9 13 11 13 20 0 5 -8 10 -20
10 -27 0 -7 10 -17 21 -24 20 -10 21 -9 17 15 -3 14 -1 27 4 28 5 2 5 27 -1
58 -5 30 -9 44 -10 30 -1 -14 -8 -34 -16 -44 -14 -18 -15 -16 -15 32 0 36 4
51 13 49 9 -1 12 18 10 73 0 41 1 69 4 62 8 -19 23 -3 23 24 0 34 -41 174 -51
174 -4 0 -10 -3 -12 -7z"/>
<path d="M815 1000 c-4 -23 -4 -82 -1 -133 7 -89 6 -91 -11 -70 -10 12 -29 40
-43 63 l-25 42 -3 -44 c-1 -23 2 -63 7 -88 l9 -45 1 54 c1 51 2 53 16 35 8
-11 14 -41 15 -69 0 -36 -3 -46 -10 -35 -15 24 0 -58 21 -113 11 -26 19 -68
19 -93 0 -28 4 -43 10 -39 6 3 10 22 10 41 0 42 -20 125 -29 120 -3 -2 -7 22
-9 54 -3 49 -1 58 13 56 9 -1 20 -8 25 -16 5 -7 8 42 7 111 -1 68 -6 127 -12
131 -6 5 -6 18 2 38 6 16 8 32 3 35 -5 3 -11 -13 -15 -35z"/>
<path d="M100 995 c-2 -39 -3 -39 -9 -10 -7 27 -8 24 -15 -25 -7 -61 -5 -120
6 -114 10 6 30 139 25 166 -3 15 -5 9 -7 -17z"/>
<path d="M1503 995 c0 -22 2 -30 4 -17 2 12 2 30 0 40 -3 9 -5 -1 -4 -23z"/>
<path d="M1972 1005 c0 -16 2 -22 5 -12 2 9 2 23 0 30 -3 6 -5 -1 -5 -18z"/>
<path d="M3052 1000 c0 -19 2 -27 5 -17 2 9 2 25 0 35 -3 9 -5 1 -5 -18z"/>
<path d="M3322 1010 c0 -14 2 -19 5 -12 2 6 2 18 0 25 -3 6 -5 1 -5 -13z"/>
<path d="M2661 983 c1 -21 4 -49 8 -63 11 -40 24 -5 16 45 -8 56 -25 69 -24
18z"/>
<path d="M654 994 c3 -9 7 -68 8 -132 l2 -117 6 100 6 100 5 -90 5 -90 2 105
c1 74 -3 110 -12 123 -16 21 -30 22 -22 1z"/>
<path d="M2730 968 c0 -27 5 -48 10 -48 13 0 13 60 0 80 -7 11 -10 2 -10 -32z"/>
<path d="M3111 994 c0 -11 3 -14 6 -6 3 7 2 16 -1 19 -3 4 -6 -2 -5 -13z"/>
<path d="M1072 975 c0 -16 2 -22 5 -12 2 9 2 23 0 30 -3 6 -5 -1 -5 -18z"/>
<path d="M2081 984 c0 -11 3 -14 6 -6 3 7 2 16 -1 19 -3 4 -6 -2 -5 -13z"/>
<path d="M2140 973 c0 -22 2 -25 10 -13 13 20 13 40 0 40 -5 0 -10 -12 -10
-27z"/>
<path d="M2861 973 c-1 -18 4 -33 9 -33 12 0 12 17 0 45 -7 17 -9 15 -9 -12z"/>
<path d="M146 965 c-13 -50 -18 -144 -11 -172 7 -25 10 -20 21 42 15 83 18
155 5 155 -5 0 -12 -11 -15 -25z"/>
<path d="M868 963 c54 -77 78 -162 51 -178 -6 -4 -15 -17 -20 -29 -6 -15 -7
-10 -3 19 4 31 3 37 -6 25 -9 -12 -11 -8 -7 18 2 18 -1 36 -6 39 -9 6 -3 -111
9 -182 l5 -30 -21 30 c-17 24 -21 26 -19 10 3 -37 -2 -40 -16 -10 -9 18 -13
21 -9 8 3 -12 6 -41 8 -65 2 -24 7 -60 11 -80 11 -59 0 -88 -35 -88 -24 0 -29
-5 -33 -27 -2 -16 -4 13 -4 62 0 73 -4 98 -22 130 -11 21 -21 57 -22 80 0 31
-2 36 -9 20 -15 -36 -10 -79 15 -130 25 -48 25 -55 20 -174 -6 -136 -14 -172
-16 -70 -1 35 -5 93 -9 129 -6 52 -7 57 -9 25 -2 -33 -4 -37 -12 -20 -8 17 -9
16 -4 -5 3 -14 10 -68 14 -121 5 -53 16 -111 24 -130 9 -19 18 -49 22 -67 4
-18 11 -29 16 -26 6 3 9 0 8 -7 -3 -13 5 -59 17 -101 4 -14 16 -18 48 -18 41
0 43 2 53 38 l10 37 2 -37 c0 -21 6 -38 12 -38 9 0 10 25 6 90 -4 55 -3 100 4
117 19 51 29 122 19 145 l-9 23 0 -23 c-1 -12 -11 -57 -23 -98 -18 -60 -24
-71 -29 -53 -3 13 1 44 9 69 8 25 15 88 16 140 2 94 11 134 26 110 4 -6 7 4 8
22 0 31 -1 31 -9 9 -18 -46 -28 -8 -17 69 21 160 25 184 27 166 1 -16 3 -16
20 5 l20 24 -5 -25 c-6 -24 -5 -24 15 5 22 31 28 61 11 50 -5 -3 -10 2 -10 12
0 15 -2 16 -10 3 -8 -12 -10 -11 -8 5 3 40 -2 66 -12 60 -5 -3 -10 -1 -10 5 0
25 -49 60 -85 60 l-36 0 19 -27z m36 -468 c-4 -8 -8 -15 -10 -15 -2 0 -4 7 -4
15 0 8 4 15 10 15 5 0 7 -7 4 -15z m13 -397 c-3 -8 -6 -5 -6 6 -1 11 2 17 5
13 3 -3 4 -12 1 -19z m-40 -70 c-3 -8 -6 -5 -6 6 -1 11 2 17 5 13 3 -3 4 -12
1 -19z"/>
<path d="M1565 925 c-4 -36 -5 -68 -2 -71 3 -3 8 24 12 61 4 36 5 68 2 71 -3
3 -8 -24 -12 -61z"/>
<path d="M1905 938 c-4 -31 -5 -63 -2 -70 2 -7 8 13 12 44 4 31 5 63 2 70 -2
7 -8 -13 -12 -44z"/>
<path d="M2796 963 c7 -39 14 -42 14 -5 0 18 -4 32 -9 32 -5 0 -7 -12 -5 -27z"/>
<path d="M2992 965 c0 -16 2 -22 5 -12 2 9 2 23 0 30 -3 6 -5 -1 -5 -18z"/>
<path d="M1132 935 c0 -27 4 -61 8 -75 8 -24 8 -24 8 5 0 17 -3 50 -7 75 l-8
45 -1 -50z"/>
<path d="M1092 940 c0 -19 2 -27 5 -17 2 9 2 25 0 35 -3 9 -5 1 -5 -18z"/>
<path d="M1422 940 c0 -19 2 -27 5 -17 2 9 2 25 0 35 -3 9 -5 1 -5 -18z"/>
<path d="M1706 904 c-4 -37 -5 -69 -2 -71 2 -3 7 25 11 62 4 36 5 68 3 71 -3
2 -8 -25 -12 -62z"/>
<path d="M1961 954 c0 -11 3 -14 6 -6 3 7 2 16 -1 19 -3 4 -6 -2 -5 -13z"/>
<path d="M1637 931 c-4 -18 -7 -50 -6 -70 1 -36 1 -36 10 9 5 25 8 56 7 70 -3
22 -4 21 -11 -9z"/>
<path d="M2037 940 c-4 -14 -6 -38 -6 -55 1 -24 3 -21 10 15 10 49 7 80 -4 40z"/>
<path d="M201 880 c-6 -38 -10 -84 -10 -102 l1 -33 8 30 c7 29 8 29 10 5 4
-39 19 44 19 107 1 76 -14 73 -28 -7z"/>
<path d="M1243 900 c0 -30 2 -43 4 -27 2 15 2 39 0 55 -2 15 -4 2 -4 -28z"/>
<path d="M1435 875 c-4 -42 -5 -79 -2 -81 3 -3 8 29 12 71 4 42 5 78 2 81 -2
3 -8 -29 -12 -71z"/>
<path d="M1493 910 c0 -25 2 -35 4 -22 2 12 2 32 0 45 -2 12 -4 2 -4 -23z"/>
<path d="M1775 885 c-4 -37 -5 -69 -2 -72 3 -2 8 25 12 62 4 36 5 68 2 71 -2
3 -8 -25 -12 -61z"/>
<path d="M1372 910 c0 -19 2 -27 5 -17 2 9 2 25 0 35 -3 9 -5 1 -5 -18z"/>
<path d="M2102 920 c0 -14 2 -19 5 -12 2 6 2 18 0 25 -3 6 -5 1 -5 -13z"/>
<path d="M2310 920 c0 -11 4 -20 9 -20 5 0 7 9 4 20 -3 11 -7 20 -9 20 -2 0
-4 -9 -4 -20z"/>
<path d="M1982 905 c0 -16 2 -22 5 -12 2 9 2 23 0 30 -3 6 -5 -1 -5 -18z"/>
<path d="M268 870 c-11 -75 -10 -128 1 -135 12 -7 18 14 26 90 4 40 3 55 -4
46 -7 -11 -10 -6 -13 20 -3 29 -4 26 -10 -21z"/>
<path d="M782 900 c0 -14 2 -19 5 -12 2 6 2 18 0 25 -3 6 -5 1 -5 -13z"/>
<path d="M1845 867 c-4 -31 -5 -62 -3 -69 3 -7 8 16 12 51 4 35 5 65 2 68 -2
3 -7 -20 -11 -50z"/>
<path d="M2262 890 c0 -19 2 -27 5 -17 2 9 2 25 0 35 -3 9 -5 1 -5 -18z"/>
<path d="M1505 840 c-4 -39 -5 -73 -2 -76 3 -3 8 27 12 66 4 39 5 73 2 76 -3
3 -8 -27 -12 -66z"/>
<path d="M1182 870 c0 -14 2 -19 5 -12 2 6 2 18 0 25 -3 6 -5 1 -5 -13z"/>
<path d="M1923 850 c0 -25 2 -35 4 -22 2 12 2 32 0 45 -2 12 -4 2 -4 -23z"/>
<path d="M327 815 c-4 -38 -7 -90 -8 -115 0 -34 -2 -40 -9 -25 -16 37 -10 -2
9 -65 18 -57 55 -123 90 -160 13 -13 14 -12 8 10 -6 24 -5 23 18 -5 14 -17 28
-41 31 -54 6 -20 8 -21 16 -7 7 12 3 26 -10 49 -41 67 -61 167 -55 279 5 87 3
101 -8 90 -10 -9 -14 -39 -14 -97 1 -47 -3 -79 -7 -72 -5 7 -6 2 -3 -13 2 -14
9 -45 14 -70 6 -24 8 -46 5 -49 -2 -2 -4 1 -4 8 0 7 -4 10 -9 6 -14 -8 -53
102 -57 160 -3 36 -1 43 5 25 6 -20 10 -9 16 52 4 42 5 82 2 90 -3 7 -6 0 -8
-17 -2 -27 -3 -26 -8 10 -6 37 -7 36 -14 -30z"/>
<path d="M1576 839 c-4 -23 -3 -76 1 -118 6 -71 7 -74 14 -36 4 22 8 54 7 70
0 29 0 29 -8 5 -5 -15 -6 4 -3 48 6 78 0 97 -11 31z"/>
<path d="M1645 805 c-4 -37 -5 -69 -2 -71 2 -3 8 25 12 61 4 37 5 69 2 71 -2
3 -8 -25 -12 -61z"/>
<path d="M2211 854 c0 -11 3 -14 6 -6 3 7 2 16 -1 19 -3 4 -6 -2 -5 -13z"/>
<path d="M1972 840 c0 -14 2 -19 5 -12 2 6 2 18 0 25 -3 6 -5 1 -5 -13z"/>
<path d="M1715 790 c-4 -34 -5 -63 -2 -66 2 -3 7 23 11 57 4 33 5 63 3 66 -3
2 -8 -23 -12 -57z"/>
<path d="M1785 780 c-4 -39 -5 -73 -2 -76 3 -3 8 27 12 66 4 39 5 73 2 76 -3
3 -8 -27 -12 -66z"/>
<path d="M1036 815 c-9 -26 -7 -32 5 -12 6 10 9 21 6 23 -2 3 -7 -2 -11 -11z"/>
<path d="M1452 790 c0 -19 2 -27 5 -17 2 9 2 25 0 35 -3 9 -5 1 -5 -18z"/>
<path d="M1985 777 c-4 -25 -5 -52 -3 -59 3 -7 8 11 13 40 4 29 5 56 2 59 -3
2 -9 -16 -12 -40z"/>
<path d="M1515 747 c-4 -31 -5 -62 -3 -69 3 -7 8 15 13 50 4 35 5 66 2 68 -3
3 -8 -19 -12 -49z"/>
<path d="M1912 770 c0 -19 2 -27 5 -17 2 9 2 25 0 35 -3 9 -5 1 -5 -18z"/>
<path d="M1855 715 c-4 -42 -5 -78 -3 -81 3 -2 8 30 12 72 4 42 5 78 2 81 -2
2 -7 -30 -11 -72z"/>
<path d="M3662 765 c0 -16 2 -22 5 -12 2 9 2 23 0 30 -3 6 -5 -1 -5 -18z"/>
<path d="M591 748 c0 -20 10 -59 24 -90 14 -29 25 -64 26 -78 0 -25 1 -25 11
-3 8 17 4 34 -20 85 -17 34 -33 77 -35 93 -4 27 -4 27 -6 -7z"/>
<path d="M457 735 c-4 -22 -6 -58 -6 -80 1 -34 2 -36 8 -15 l8 25 5 -25 c3
-14 6 2 6 35 1 79 -12 115 -21 60z"/>
<path d="M1933 720 c0 -30 2 -43 4 -27 2 15 2 39 0 55 -2 15 -4 2 -4 -28z"/>
<path d="M1655 707 c-4 -30 -5 -63 -3 -73 2 -11 8 12 12 49 4 38 5 71 3 74 -3
2 -8 -20 -12 -50z"/>
<path d="M551 734 c0 -11 3 -14 6 -6 3 7 2 16 -1 19 -3 4 -6 -2 -5 -13z"/>
<path d="M1725 675 c-4 -42 -5 -78 -2 -81 2 -3 8 29 12 71 4 42 5 79 2 81 -3
3 -8 -29 -12 -71z"/>
<path d="M2800 723 c0 -46 11 -93 23 -93 13 0 3 98 -12 113 -8 8 -11 3 -11
-20z"/>
<path d="M3161 734 c0 -11 3 -14 6 -6 3 7 2 16 -1 19 -3 4 -6 -2 -5 -13z"/>
<path d="M669 713 c0 -25 -1 -26 -9 -8 -7 16 -9 12 -9 -18 -1 -25 8 -51 24
-75 14 -20 25 -50 25 -67 1 -26 2 -27 11 -12 14 24 3 71 -22 93 -17 15 -19 26
-14 66 4 26 4 48 1 48 -3 0 -6 -12 -7 -27z"/>
<path d="M968 690 c-5 -30 -11 -67 -14 -82 -4 -17 -2 -28 4 -28 15 0 24 54 20
115 l-3 50 -7 -55z"/>
<path d="M2740 708 c1 -37 15 -106 24 -115 14 -15 16 9 5 76 -12 73 -29 96
-29 39z"/>
<path d="M2861 730 c-2 -33 12 -89 20 -84 5 3 9 13 9 22 -1 23 -28 81 -29 62z"/>
<path d="M141 729 c-1 -3 6 -27 15 -53 12 -34 19 -44 25 -35 7 12 9 12 9 0 0
-8 2 -12 5 -9 3 2 0 19 -6 37 -9 25 -14 30 -21 19 -7 -9 -8 -3 -4 17 4 20 3
25 -2 16 -8 -11 -10 -11 -15 0 -3 8 -6 11 -6 8z"/>
<path d="M2680 698 c0 -17 5 -61 11 -96 9 -51 14 -61 21 -47 7 11 6 43 -2 96
-12 79 -30 107 -30 47z"/>
<path d="M1797 685 c-4 -22 -6 -56 -6 -75 1 -25 4 -18 10 25 10 68 7 111 -4
50z"/>
<path d="M3142 690 c0 -19 2 -27 5 -17 2 9 2 25 0 35 -3 9 -5 1 -5 -18z"/>
<path d="M225 690 c13 -48 58 -140 66 -135 8 5 32 -65 25 -72 -2 -2 -23 18
-46 45 -34 38 -48 48 -67 44 -19 -4 -23 0 -23 22 0 16 -5 26 -15 26 -8 0 -15
-8 -14 -17 1 -24 17 -71 19 -58 1 6 5 1 10 -10 l9 -20 0 20 c1 17 4 15 21 -10
11 -16 20 -38 20 -47 0 -21 22 -36 28 -19 3 9 7 9 18 0 9 -7 15 -34 16 -73 1
-57 2 -58 7 -16 l5 45 6 -50 7 -50 1 58 c2 57 2 57 22 37 13 -13 20 -34 21
-62 0 -24 5 -65 9 -93 8 -42 8 -36 5 35 -3 54 -1 78 5 65 7 -16 9 -13 9 17 1
31 -5 41 -32 62 -25 19 -33 33 -34 58 -1 33 -82 237 -83 208 0 -13 -1 -13 -11
0 -8 11 -9 9 -4 -10z"/>
<path d="M561 694 c0 -11 3 -14 6 -6 3 7 2 16 -1 19 -3 4 -6 -2 -5 -13z"/>
<path d="M519 668 c-3 -20 1 -51 7 -70 l12 -33 0 40 c0 22 -3 54 -7 70 l-7 30
-5 -37z"/>
<path d="M3093 665 c0 -22 2 -30 4 -17 2 12 2 30 0 40 -3 9 -5 -1 -4 -23z"/>
<path d="M1532 665 c0 -16 2 -22 5 -12 2 9 2 23 0 30 -3 6 -5 -1 -5 -18z"/>
<path d="M1603 650 c0 -25 2 -35 4 -22 2 12 2 32 0 45 -2 12 -4 2 -4 -23z"/>
<path d="M11 661 c-6 -11 -11 -32 -11 -48 l1 -28 15 28 c8 15 12 33 8 39 -4 7
-3 8 4 4 7 -4 12 -3 12 3 0 20 -19 21 -29 2z"/>
<path d="M91 662 c0 -13 6 -30 14 -38 13 -14 15 -12 14 18 0 27 -2 29 -8 13
-8 -19 -9 -18 -13 5 -5 24 -5 24 -7 2z"/>
<path d="M1673 625 c0 -27 2 -38 4 -22 2 15 2 37 0 50 -2 12 -4 0 -4 -28z"/>
<path d="M3355 663 c4 -8 -1 -13 -12 -14 -14 0 -12 -3 6 -10 31 -12 35 -7 15
17 -8 10 -13 13 -9 7z"/>
<path d="M1191 644 c0 -11 3 -14 6 -6 3 7 2 16 -1 19 -3 4 -6 -2 -5 -13z"/>
<path d="M1873 620 c0 -25 2 -35 4 -22 2 12 2 32 0 45 -2 12 -4 2 -4 -23z"/>
<path d="M3071 618 c-1 -20 4 -40 9 -43 12 -7 12 19 0 55 -7 22 -8 21 -9 -12z"/>
<path d="M1743 605 c0 -22 2 -30 4 -17 2 12 2 30 0 40 -3 9 -5 -1 -4 -23z"/>
<path d="M2311 598 c1 -57 12 -97 23 -80 10 16 -3 122 -15 122 -5 0 -9 -19 -8
-42z"/>
<path d="M3021 600 c-2 -35 -4 -41 -11 -25 -6 15 -9 7 -9 -30 0 -27 5 -59 10
-70 7 -15 8 -8 5 27 -2 26 1 51 6 56 5 5 8 27 5 48 l-4 39 -2 -45z"/>
<path d="M581 590 c0 -19 4 -42 9 -50 8 -12 10 -10 9 10 -1 14 -5 36 -9 50 -7
23 -8 22 -9 -10z"/>
<path d="M1921 604 c0 -11 3 -14 6 -6 3 7 2 16 -1 19 -3 4 -6 -2 -5 -13z"/>
<path d="M461 603 c0 -6 8 -49 19 -95 11 -46 18 -96 16 -113 -2 -16 -1 -22 1
-12 12 49 53 -27 53 -100 0 -26 5 -55 10 -63 17 -25 4 141 -14 174 -8 17 -25
67 -37 113 -13 49 -25 79 -30 72 -5 -8 -9 -4 -12 12 -2 13 -5 19 -6 12z m26
-65 c-3 -8 -6 -5 -6 6 -1 11 2 17 5 13 3 -3 4 -12 1 -19z"/>
<path d="M3271 594 c0 -11 3 -14 6 -6 3 7 2 16 -1 19 -3 4 -6 -2 -5 -13z"/>
<path d="M30 565 c-12 -19 -19 -42 -16 -51 3 -8 2 -13 -2 -10 -5 3 -9 -8 -9
-24 0 -17 1 -29 3 -27 1 1 16 31 34 65 21 42 29 67 22 74 -6 6 -17 -3 -32 -27z"/>
<path d="M2250 577 c0 -16 4 -26 9 -23 4 3 6 -6 3 -19 -2 -15 0 -25 7 -25 16
0 14 53 -4 76 -14 18 -14 18 -15 -9z"/>
<path d="M997 560 c-4 -18 -3 -39 2 -47 6 -12 10 -7 14 17 4 18 3 39 -2 47 -6
12 -10 7 -14 -17z"/>
<path d="M1593 550 c0 -25 2 -35 4 -22 2 12 2 32 0 45 -2 12 -4 2 -4 -23z"/>
<path d="M1812 555 c0 -16 2 -22 5 -12 2 9 2 23 0 30 -3 6 -5 -1 -5 -18z"/>
<path d="M2950 560 c-1 -14 -2 -28 -1 -32 0 -5 -3 -8 -8 -8 -5 0 -12 -51 -15
-112 -6 -95 -4 -122 12 -172 11 -32 21 -52 24 -44 3 8 0 32 -8 53 -11 33 -12
62 -3 160 6 66 9 134 6 150 -4 27 -4 28 -7 5z"/>
<path d="M3231 570 c0 -8 6 -28 14 -45 10 -23 13 -25 14 -10 0 11 -6 31 -14
45 -8 14 -14 19 -14 10z"/>
<path d="M662 550 c0 -14 2 -19 5 -12 2 6 2 18 0 25 -3 6 -5 1 -5 -13z"/>
<path d="M61 480 c-21 -45 -31 -76 -26 -87 6 -14 16 -1 42 54 23 48 32 77 26
87 -6 11 -17 -2 -42 -54z"/>
<path d="M1662 530 c0 -14 2 -19 5 -12 2 6 2 18 0 25 -3 6 -5 1 -5 -13z"/>
<path d="M556 525 c-9 -25 -7 -32 5 -15 8 12 9 10 5 -10 -7 -36 4 -76 16 -58
6 8 7 2 3 -19 -6 -31 24 -120 37 -108 8 8 -3 -48 -12 -60 -13 -18 -22 -125
-11 -125 6 0 10 10 10 23 0 12 6 54 15 92 15 66 15 73 -3 119 -12 32 -21 44
-25 35 -3 -8 -4 -3 -1 11 6 36 -5 76 -17 58 -6 -9 -7 -3 -4 17 7 35 -7 67 -18
40z"/>
<path d="M641 522 c-1 -13 -5 -21 -10 -18 -5 4 -7 -3 -4 -15 5 -16 8 -18 15
-7 6 8 7 1 4 -22 -5 -29 -4 -31 4 -12 6 14 6 37 1 60 -6 25 -9 29 -10 14z"/>
<path d="M1861 524 c0 -11 3 -14 6 -6 3 7 2 16 -1 19 -3 4 -6 -2 -5 -13z"/>
<path d="M2212 515 c0 -16 2 -22 5 -12 2 9 2 23 0 30 -3 6 -5 -1 -5 -18z"/>
<path d="M2881 523 c1 -10 5 -29 9 -43 7 -22 8 -21 9 12 1 20 -3 40 -9 43 -5
3 -10 -2 -9 -12z"/>
<path d="M1612 500 c0 -19 2 -27 5 -17 2 9 2 25 0 35 -3 9 -5 1 -5 -18z"/>
<path d="M3206 500 c7 -38 33 -94 33 -70 0 8 -9 35 -20 60 -18 43 -19 43 -13
10z"/>
<path d="M1036 495 c-4 -14 -2 -33 3 -42 7 -13 10 -10 16 16 9 40 -9 65 -19
26z"/>
<path d="M1682 490 c0 -19 2 -27 5 -17 2 9 2 25 0 35 -3 9 -5 1 -5 -18z"/>
<path d="M2830 488 c1 -43 36 -163 44 -150 13 22 -18 172 -36 172 -4 0 -8 -10
-8 -22z"/>
<path d="M130 493 c0 -4 5 -15 10 -23 8 -13 10 -13 10 2 0 9 -4 20 -10 23 -5
3 -10 3 -10 -2z"/>
<path d="M950 488 c0 -8 -3 -36 -6 -62 -4 -28 -3 -46 3 -46 15 0 27 100 14
113 -8 8 -11 6 -11 -5z"/>
<path d="M1086 465 c-4 -21 -3 -42 2 -47 14 -14 26 47 14 68 -7 13 -11 9 -16
-21z"/>
<path d="M2777 483 c-7 -11 26 -197 33 -189 3 2 5 -14 5 -37 1 -56 25 -167 37
-167 12 0 8 34 -26 225 -28 151 -38 186 -49 168z"/>
<path d="M3840 461 c0 -12 5 -21 10 -21 6 0 10 6 10 14 0 8 -4 18 -10 21 -5 3
-10 -3 -10 -14z"/>
<path d="M181 465 c1 -19 18 -51 18 -35 0 8 -4 22 -9 30 -5 8 -9 11 -9 5z"/>
<path d="M360 458 c0 -9 5 -20 10 -23 13 -8 13 5 0 25 -8 13 -10 13 -10 -2z"/>
<path d="M3175 448 c3 -15 10 -40 17 -55 8 -21 12 -24 15 -11 2 9 -5 34 -17
55 -18 32 -20 34 -15 11z"/>
<path d="M101 414 c-13 -29 -19 -54 -15 -67 6 -18 9 -16 30 24 13 24 23 52 24
61 0 34 -17 26 -39 -18z"/>
<path d="M991 445 c0 -11 4 -29 9 -40 l9 -20 0 20 c0 11 -4 29 -9 40 l-9 20 0
-20z"/>
<path d="M3800 441 c0 -11 5 -23 10 -26 6 -3 10 3 10 14 0 11 -4 23 -10 26 -5
3 -10 -3 -10 -14z"/>
<path d="M656 426 c-3 -14 -2 -36 3 -49 6 -14 15 -52 21 -86 9 -52 8 -73 -10
-151 -12 -49 -30 -100 -40 -112 -17 -21 -16 -15 5 62 32 117 38 150 28 150 -5
0 -15 -28 -21 -63 -7 -35 -20 -89 -31 -121 l-19 -57 32 3 c27 3 32 8 37 38 4
19 7 31 8 26 0 -5 10 3 21 17 22 27 26 42 10 32 -20 -12 -9 27 14 50 13 13 22
26 19 29 -3 3 -12 -2 -20 -10 -22 -21 -26 -12 -14 30 15 55 -12 212 -31 184
-6 -8 -7 -1 -3 20 8 37 0 44 -9 8z m31 -98 c-3 -8 -6 -5 -6 6 -1 11 2 17 5 13
3 -3 4 -12 1 -19z"/>
<path d="M2070 424 c0 -16 4 -34 9 -39 5 -6 12 -21 14 -35 3 -14 3 0 0 30 -4
59 -23 95 -23 44z"/>
<path d="M3750 429 c0 -8 7 -24 15 -35 11 -15 14 -16 15 -3 0 8 -7 24 -15 35
-11 15 -14 16 -15 3z"/>
<path d="M1803 380 c0 -30 2 -43 4 -27 2 15 2 39 0 55 -2 15 -4 2 -4 -28z"/>
<path d="M2015 420 c-3 -5 -1 -10 4 -10 6 0 11 5 11 10 0 6 -2 10 -4 10 -3 0
-8 -4 -11 -10z"/>
<path d="M2250 389 c0 -54 21 -123 38 -127 6 -1 12 0 12 3 0 9 -42 160 -46
164 -2 2 -4 -16 -4 -40z"/>
<path d="M3701 398 c6 -18 11 -42 12 -52 1 -11 8 -21 16 -24 15 -5 11 26 -11
81 -15 38 -29 34 -17 -5z"/>
<path d="M147 354 c-18 -42 -26 -73 -21 -86 6 -21 7 -21 19 3 7 13 21 48 30
77 26 79 5 83 -28 6z"/>
<path d="M1125 389 c-5 -20 -3 -35 5 -42 10 -9 11 -6 6 16 -4 19 -3 26 4 22 5
-3 10 1 10 9 0 29 -18 26 -25 -5z"/>
<path d="M2136 412 c-4 -7 -4 -31 -1 -54 6 -34 9 -38 17 -24 12 21 -3 98 -16
78z"/>
<path d="M2193 370 c7 -54 36 -122 37 -84 0 39 -23 134 -33 134 -6 0 -8 -19
-4 -50z"/>
<path d="M2731 377 c-1 -30 3 -46 9 -42 12 7 12 42 0 70 -6 15 -9 8 -9 -28z"/>
<path d="M3141 405 c0 -11 8 -38 18 -60 17 -35 19 -37 20 -15 0 14 -8 41 -19
60 -14 26 -19 30 -19 15z"/>
<path d="M3050 404 c0 -6 9 -37 20 -70 12 -32 30 -99 41 -149 22 -96 36 -128
24 -55 -14 96 -84 320 -85 274z"/>
<path d="M3011 384 c-1 -11 10 -58 24 -104 14 -46 25 -93 25 -104 1 -21 49
-140 49 -121 1 6 -10 45 -24 88 -14 43 -25 88 -26 100 0 31 -47 167 -48 141z"/>
<path d="M3101 385 c0 -11 11 -45 24 -75 15 -33 24 -47 25 -34 0 12 -11 46
-24 75 -14 30 -25 45 -25 34z"/>
<path d="M220 381 c0 -6 5 -13 10 -16 6 -3 10 1 10 9 0 9 -4 16 -10 16 -5 0
-10 -4 -10 -9z"/>
<path d="M413 373 c11 -13 22 -48 27 -90 l8 -68 -2 74 c-1 67 -3 75 -26 89
-25 16 -25 16 -7 -5z"/>
<path d="M1184 367 c4 -19 3 -26 -4 -22 -12 7 -13 -15 -1 -33 6 -10 11 -3 15
23 5 25 3 41 -5 49 -9 8 -10 4 -5 -17z"/>
<path d="M981 368 c1 -7 5 -24 9 -38 7 -22 8 -21 9 13 1 20 -3 37 -9 37 -5 0
-10 -6 -9 -12z"/>
<path d="M1752 355 c0 -16 2 -22 5 -12 2 9 2 23 0 30 -3 6 -5 -1 -5 -18z"/>
<path d="M125 360 c-3 -5 -1 -10 4 -10 6 0 11 5 11 10 0 6 -2 10 -4 10 -3 0
-8 -4 -11 -10z"/>
<path d="M1032 345 c0 -16 4 -41 8 -55 7 -23 8 -22 8 10 0 19 -3 44 -8 55 -7
17 -9 15 -8 -10z"/>
<path d="M1225 332 c-4 -25 -2 -48 5 -59 9 -15 10 -11 6 20 -3 22 -1 35 5 32
11 -8 12 15 0 34 -6 10 -11 2 -16 -27z"/>
<path d="M1602 335 c0 -16 2 -22 5 -12 2 9 2 23 0 30 -3 6 -5 -1 -5 -18z"/>
<path d="M215 331 c5 -15 3 -21 -3 -17 -17 10 -47 -80 -35 -107 9 -19 13 -14
33 51 18 58 20 76 10 85 -10 9 -11 7 -5 -12z"/>
<path d="M1280 336 c0 -8 5 -18 10 -21 6 -3 10 1 10 9 0 8 -4 18 -10 21 -5 3
-10 -1 -10 -9z"/>
<path d="M70 335 c0 -5 5 -17 10 -25 5 -8 10 -10 10 -5 0 6 -5 17 -10 25 -5 8
-10 11 -10 5z"/>
<path d="M1330 321 c0 -11 5 -23 10 -26 6 -3 10 3 10 14 0 11 -4 23 -10 26 -5
3 -10 -3 -10 -14z"/>
<path d="M2692 315 c0 -16 2 -22 5 -12 2 9 2 23 0 30 -3 6 -5 -1 -5 -18z"/>
<path d="M2970 317 c0 -38 42 -162 79 -231 37 -69 41 -53 6 22 -14 30 -34 90
-45 135 -22 86 -40 121 -40 74z"/>
<path d="M11 314 c0 -11 3 -14 6 -6 3 7 2 16 -1 19 -3 4 -6 -2 -5 -13z"/>
<path d="M492 295 c0 -22 4 -51 8 -65 7 -21 8 -17 8 20 0 25 -3 54 -8 65 -7
15 -9 11 -8 -20z"/>
<path d="M2877 324 c-4 -4 -7 -19 -6 -33 l0 -26 10 24 c10 26 8 47 -4 35z"/>
<path d="M1081 295 c0 -16 4 -39 9 -50 7 -17 9 -16 9 10 0 17 -4 39 -9 50 -7
17 -9 16 -9 -10z"/>
<path d="M1380 306 c0 -9 5 -16 10 -16 6 0 10 4 10 9 0 6 -4 13 -10 16 -5 3
-10 -1 -10 -9z"/>
<path d="M1430 305 c0 -8 4 -15 10 -15 5 0 7 7 4 15 -4 8 -8 15 -10 15 -2 0
-4 -7 -4 -15z"/>
<path d="M1753 280 c0 -25 2 -35 4 -22 2 12 2 32 0 45 -2 12 -4 2 -4 -23z"/>
<path d="M2744 268 c12 -98 49 -268 57 -268 14 0 11 24 -18 178 -15 78 -31
142 -36 142 -6 0 -7 -22 -3 -52z"/>
<path d="M265 287 c3 -18 2 -26 -4 -23 -5 4 -13 -3 -16 -15 -6 -17 -9 -19 -16
-8 -5 8 -9 12 -10 9 0 -3 -2 -13 -4 -22 -2 -10 1 -18 7 -18 6 0 7 -13 3 -32
-5 -25 -4 -29 4 -18 10 13 11 13 11 0 0 -12 2 -13 9 -1 12 18 31 5 31 -22 0
-12 4 -29 9 -36 8 -12 11 -9 17 13 4 17 11 25 20 22 8 -3 14 -1 14 4 0 6 -4
10 -9 10 -5 0 -12 15 -15 33 -6 28 -9 30 -19 16 -21 -28 -38 1 -26 45 7 25 7
41 -1 54 -9 14 -10 12 -5 -11z"/>
<path d="M421 254 c1 -32 5 -70 9 -84 5 -15 6 7 3 55 -7 96 -13 112 -12 29z"/>
<path d="M61 280 c0 -8 4 -22 9 -30 12 -18 12 -2 0 25 -6 13 -9 15 -9 5z"/>
<path d="M1271 275 c0 -11 4 -29 9 -40 8 -18 9 -18 9 5 0 14 -4 32 -9 40 -8
12 -10 12 -9 -5z"/>
<path d="M641 264 c0 -11 3 -14 6 -6 3 7 2 16 -1 19 -3 4 -6 -2 -5 -13z"/>
<path d="M973 210 c-23 -67 -31 -133 -14 -114 19 21 42 103 39 140 l-3 40 -22
-66z"/>
<path d="M1553 240 c0 -25 2 -35 4 -22 2 12 2 32 0 45 -2 12 -4 2 -4 -23z"/>
<path d="M2646 200 c6 -101 24 -200 37 -200 5 0 7 15 3 33 -4 17 -13 70 -21
117 -23 136 -24 140 -19 50z"/>
<path d="M2886 264 c-9 -24 4 -111 20 -131 13 -17 13 -17 14 0 0 9 -4 17 -9
17 -5 0 -7 9 -4 20 3 11 2 28 -2 37 -4 10 -7 30 -6 46 3 30 -4 36 -13 11z"/>
<path d="M1130 222 c0 -29 4 -52 9 -52 8 0 3 90 -5 99 -2 2 -4 -19 -4 -47z"/>
<path d="M1320 240 c0 -16 4 -30 8 -30 5 0 7 14 4 30 -2 17 -6 30 -8 30 -2 0
-4 -13 -4 -30z"/>
<path d="M1674 135 c0 -77 2 -107 3 -67 2 40 2 103 0 140 -2 37 -3 4 -3 -73z"/>
<path d="M352 230 c0 -19 2 -27 5 -17 2 9 2 25 0 35 -3 9 -5 1 -5 -18z"/>
<path d="M1602 235 c0 -16 2 -22 5 -12 2 9 2 23 0 30 -3 6 -5 -1 -5 -18z"/>
<path d="M2080 218 c0 -49 5 -47 14 5 4 23 3 37 -4 37 -5 0 -10 -19 -10 -42z"/>
<path d="M1041 234 c0 -11 3 -14 6 -6 3 7 2 16 -1 19 -3 4 -6 -2 -5 -13z"/>
<path d="M2032 230 c0 -14 2 -19 5 -12 2 6 2 18 0 25 -3 6 -5 1 -5 -13z"/>
<path d="M50 235 c0 -5 5 -17 10 -25 5 -8 10 -10 10 -5 0 6 -5 17 -10 25 -5 8
-10 11 -10 5z"/>
<path d="M111 230 c0 -8 4 -22 9 -30 12 -18 12 -2 0 25 -6 13 -9 15 -9 5z"/>
<path d="M2520 230 c0 -5 5 -10 10 -10 6 0 10 5 10 10 0 6 -4 10 -10 10 -5 0
-10 -4 -10 -10z"/>
<path d="M481 163 c0 -39 4 -75 9 -78 12 -7 12 74 0 120 -6 23 -8 12 -9 -42z"/>
<path d="M1624 130 c0 -58 1 -81 3 -53 2 29 2 77 0 106 -2 28 -3 5 -3 -53z"/>
<path d="M2155 221 c-10 -17 6 -152 17 -145 7 4 8 -9 3 -37 -6 -35 -5 -42 6
-32 10 10 10 32 0 115 -13 109 -15 116 -26 99z"/>
<path d="M2465 208 c-5 -19 -2 -32 9 -43 15 -15 16 -15 15 7 0 13 -4 32 -9 43
-7 18 -8 18 -15 -7z"/>
<path d="M1752 195 c0 -16 2 -22 5 -12 2 9 2 23 0 30 -3 6 -5 -1 -5 -18z"/>
<path d="M2210 211 c0 -8 5 -55 12 -105 11 -86 21 -117 33 -104 10 10 -17 182
-31 203 -9 12 -14 14 -14 6z"/>
<path d="M2287 191 c-8 -38 1 -162 14 -182 16 -27 18 -1 6 106 -10 88 -14 103
-20 76z"/>
<path d="M541 195 c0 -11 4 -29 9 -40 8 -18 9 -18 9 5 0 14 -4 32 -9 40 -8 12
-10 12 -9 -5z"/>
<path d="M1201 194 c0 -11 3 -14 6 -6 3 7 2 16 -1 19 -3 4 -6 -2 -5 -13z"/>
<path d="M2095 155 c-4 -31 -5 -58 -2 -61 3 -3 9 20 12 51 4 31 5 58 2 61 -3
3 -9 -20 -12 -51z"/>
<path d="M2693 184 c3 -16 11 -64 17 -106 9 -53 17 -78 26 -78 18 0 17 16 -4
119 -10 50 -23 86 -31 89 -11 4 -13 -3 -8 -24z"/>
<path d="M1012 140 c-23 -67 -28 -110 -13 -110 13 0 43 105 39 142 -3 30 -5
28 -26 -32z"/>
<path d="M100 185 c0 -5 5 -17 10 -25 5 -8 10 -10 10 -5 0 6 -5 17 -10 25 -5
8 -10 11 -10 5z"/>
<path d="M1243 125 c0 -33 2 -45 4 -27 2 18 2 45 0 60 -2 15 -4 0 -4 -33z"/>
<path d="M1378 153 c5 -21 7 -23 10 -9 2 10 0 22 -6 28 -6 6 -7 0 -4 -19z"/>
<path d="M2022 160 c0 -14 2 -19 5 -12 2 6 2 18 0 25 -3 6 -5 1 -5 -13z"/>
<path d="M2991 146 c12 -20 23 -36 25 -36 7 0 -25 58 -36 65 -5 3 -1 -10 11
-29z"/>
<path d="M371 155 c-1 -16 -3 -17 -10 -6 -14 21 -25 -47 -13 -79 8 -22 10 -20
21 28 7 28 11 57 8 64 -3 7 -6 4 -6 -7z"/>
<path d="M91 150 c0 -8 4 -22 9 -30 12 -18 12 -2 0 25 -6 13 -9 15 -9 5z"/>
<path d="M171 144 c0 -11 3 -14 6 -6 3 7 2 16 -1 19 -3 4 -6 -2 -5 -13z"/>
<path d="M2961 143 c-1 -12 4 -25 9 -28 12 -7 12 2 0 30 -8 19 -9 19 -9 -2z"/>
<path d="M530 113 c0 -24 5 -43 10 -43 13 0 13 50 0 70 -7 11 -10 4 -10 -27z"/>
<path d="M3260 139 c0 -8 7 -24 15 -35 11 -15 14 -16 15 -3 0 8 -7 24 -15 35
-11 15 -14 16 -15 3z"/>
<path d="M1422 120 c0 -14 2 -19 5 -12 2 6 2 18 0 25 -3 6 -5 1 -5 -13z"/>
<path d="M2041 135 c-1 -5 -4 -30 -6 -55 -4 -44 -4 -44 6 -11 5 18 8 43 6 55
-2 11 -5 17 -6 11z"/>
<path d="M1543 65 c0 -38 2 -53 4 -32 2 20 2 52 0 70 -2 17 -4 1 -4 -38z"/>
<path d="M2530 121 c0 -5 7 -14 15 -21 12 -10 15 -10 15 3 0 8 -7 17 -15 21
-8 3 -15 2 -15 -3z"/>
<path d="M161 104 c0 -11 3 -14 6 -6 3 7 2 16 -1 19 -3 4 -6 -2 -5 -13z"/>
<path d="M210 115 c0 -5 5 -17 10 -25 5 -8 10 -10 10 -5 0 6 -5 17 -10 25 -5
8 -10 11 -10 5z"/>
<path d="M430 111 c0 -7 -4 -10 -9 -7 -13 8 -22 -54 -11 -72 8 -13 9 -10 4 13
-4 20 -3 26 4 16 7 -9 11 -4 15 20 2 19 3 36 1 38 -2 2 -4 -1 -4 -8z"/>
<path d="M575 78 c-4 -24 -11 -51 -17 -60 -6 -12 -5 -18 2 -18 6 0 14 10 19
23 13 36 20 97 11 97 -4 0 -11 -19 -15 -42z"/>
<path d="M1061 90 c-32 -88 -32 -90 0 -90 16 0 29 5 29 10 0 6 -4 10 -8 10 -4
0 -6 15 -4 34 7 57 -2 76 -17 36z"/>
<path d="M2105 65 c-3 -31 -4 -59 -2 -62 3 -2 9 21 12 52 4 31 5 58 2 61 -2 3
-8 -20 -12 -51z"/>
<path d="M1 62 c-1 -37 2 -51 10 -46 6 3 15 0 20 -7 6 -11 11 -11 20 -2 7 7
19 9 28 4 9 -4 57 -8 108 -10 l91 -2 7 30 c3 17 2 38 -4 48 -8 14 -10 11 -6
-17 4 -29 3 -31 -5 -15 -9 18 -10 17 -7 -6 3 -20 0 -26 -12 -24 -9 2 -19 4
-23 4 -3 1 -10 16 -14 34 -7 29 -8 30 -13 9 -3 -13 -9 -23 -13 -23 -5 1 -12 1
-18 1 -5 0 -10 8 -10 18 0 9 -5 24 -10 32 -7 11 -8 5 -4 -20 4 -26 3 -31 -5
-20 -9 13 -11 13 -11 -2 0 -26 -35 -22 -48 5 -8 17 -11 18 -11 5 -1 -22 -19
-24 -27 -3 -4 8 -12 15 -19 15 -8 0 -16 10 -18 23 -2 12 -5 -2 -6 -31z"/>
<path d="M81 105 c1 -19 18 -51 18 -35 0 8 -4 22 -9 30 -5 8 -9 11 -9 5z"/>
<path d="M1977 57 c-5 -27 -6 -51 -3 -54 8 -8 18 42 14 73 -3 24 -5 20 -11
-19z"/>
<path d="M2480 83 c0 -23 22 -83 30 -83 6 0 10 5 10 10 0 6 -5 10 -11 10 -6 0
-8 8 -4 19 6 21 -3 51 -16 51 -5 0 -9 -3 -9 -7z"/>
<path d="M2605 48 c8 -46 12 -55 20 -46 9 9 -7 88 -17 88 -6 0 -7 -17 -3 -42z"/>
<path d="M3026 65 c8 -37 14 -45 14 -19 0 10 -5 26 -10 34 -8 11 -9 7 -4 -15z"/>
<path d="M3250 74 c0 -11 7 -29 15 -40 19 -26 20 1 0 36 -13 23 -14 23 -15 4z"/>
<path d="M470 68 c0 -9 5 -20 10 -23 13 -8 13 5 0 25 -8 13 -10 13 -10 -2z"/>
<path d="M961 38 c-1 -21 4 -38 9 -38 12 0 12 27 0 55 -7 16 -9 13 -9 -17z"/>
<path d="M335 41 c5 -16 4 -21 -4 -17 -6 4 -11 3 -11 -3 0 -5 -8 -12 -17 -14
-10 -3 -3 -5 15 -6 34 -1 43 18 21 49 -8 12 -9 10 -4 -9z"/>
<path d="M520 46 c0 -8 -3 -23 -6 -33 -3 -10 2 -7 10 7 18 30 20 40 6 40 -5 0
-10 -6 -10 -14z"/>
<path d="M1110 47 c0 -8 -3 -22 -6 -31 -4 -11 -1 -16 10 -16 13 0 15 6 10 28
-8 33 -14 41 -14 19z"/>
<path d="M1918 35 c-6 -30 -3 -43 8 -33 3 4 4 19 2 35 l-3 28 -7 -30z"/>
<path d="M2048 35 c-6 -30 -3 -43 8 -33 3 4 4 19 2 35 l-3 28 -7 -30z"/>
<path d="M2851 33 c-1 -18 4 -33 9 -33 12 0 12 17 0 45 -7 17 -9 15 -9 -12z"/>
<path d="M1308 25 c-3 -14 -1 -25 3 -25 5 0 9 11 9 25 0 32 -6 32 -12 0z"/>
<path d="M2552 28 c2 -12 8 -23 14 -25 7 -2 10 6 7 22 -6 30 -26 34 -21 3z"/>
<path d="M460 35 c0 -5 5 -17 10 -25 5 -8 10 -11 10 -5 0 6 -5 17 -10 25 -5 8
-10 11 -10 5z"/>
<path d="M3230 22 c0 -12 19 -26 26 -19 2 2 -2 10 -11 17 -9 8 -15 8 -15 2z"/>
</g>
</svg>
